<?xml version="1.0" encoding="UTF-8" standalone="no"?>
<!-- Created with Inkscape (http://www.inkscape.org/) -->

<svg
   xmlns:dc="http://purl.org/dc/elements/1.1/"
   xmlns:cc="http://creativecommons.org/ns#"
   xmlns:rdf="http://www.w3.org/1999/02/22-rdf-syntax-ns#"
   xmlns:svg="http://www.w3.org/2000/svg"
   xmlns="http://www.w3.org/2000/svg"
   xmlns:sodipodi="http://sodipodi.sourceforge.net/DTD/sodipodi-0.dtd"
   xmlns:inkscape="http://www.inkscape.org/namespaces/inkscape"
   width="210mm"
   height="157mm"
   viewBox="0 0 210 157"
   version="1.1"
   id="svg3617"
   inkscape:version="0.92.4 (5da689c313, 2019-01-14)"
   sodipodi:docname="hiring_drawing.svg">
  <defs
     id="defs3611">
    <clipPath
       id="clipPath3649"
       clipPathUnits="userSpaceOnUse">
      <path
         inkscape:connector-curvature="0"
         id="path3647"
         d="m 1755.09,3443.61 h 2896.08 v 254.27 H 1755.09 Z" />
    </clipPath>
    <linearGradient
       id="linearGradient3655"
       spreadMethod="pad"
       gradientTransform="matrix(2896.08,0,0,-2896.08,1755.09,3570.74)"
       gradientUnits="userSpaceOnUse"
       y2="0"
       x2="1"
       y1="0"
       x1="0">
      <stop
         id="stop3651"
         offset="0"
         style="stop-opacity:1;stop-color:#40d5e6" />
      <stop
         id="stop3653"
         offset="1"
         style="stop-opacity:1;stop-color:#5577ff" />
    </linearGradient>
  </defs>
  <sodipodi:namedview
     id="base"
     pagecolor="#ffffff"
     bordercolor="#666666"
     borderopacity="1.0"
     inkscape:pageopacity="0.0"
     inkscape:pageshadow="2"
     inkscape:zoom="0.35"
     inkscape:cx="400"
     inkscape:cy="560"
     inkscape:document-units="mm"
     inkscape:current-layer="layer1"
     showgrid="false"
     inkscape:window-width="1920"
     inkscape:window-height="1017"
     inkscape:window-x="-8"
     inkscape:window-y="-8"
     inkscape:window-maximized="1" />
  <metadata
     id="metadata3614">
    <rdf:RDF>
      <cc:Work
         rdf:about="">
        <dc:format>image/svg+xml</dc:format>
        <dc:type
           rdf:resource="http://purl.org/dc/dcmitype/StillImage" />
        <dc:title></dc:title>
      </cc:Work>
    </rdf:RDF>
  </metadata>
  <g
     inkscape:label="Layer 1"
     inkscape:groupmode="layer"
     id="layer1"
     transform="translate(0,-140)">
    <path
       inkscape:connector-curvature="0"
       id="path3633"
       style="fill:#73c0ff;fill-opacity:1;fill-rule:nonzero;stroke:none;stroke-width:0.03527778"
       d="m 167.20793,180.95974 c -5.05001,0 -9.14365,-4.09399 -9.14365,-9.144 0,-5.05001 4.09364,-9.144 9.14365,-9.144 5.05002,0 9.144,4.09399 9.144,9.144 0,5.05001 -4.09398,9.144 -9.144,9.144 z m 11.90025,-12.22728 c -0.28927,-1.11971 -0.73307,-2.17734 -1.30633,-3.14995 l 1.32997,-2.00025 -1.84538,-1.84503 -1.84503,-1.84503 -2.00025,1.32962 c -0.97261,-0.57326 -2.02988,-1.01706 -3.14995,-1.30633 l -0.47378,-2.35303 h -2.6095 -2.6095 l -0.47342,2.35303 c -1.12007,0.28927 -2.17735,0.73307 -3.14996,1.30633 l -2.00025,-1.32962 -1.84502,1.84503 -1.84539,1.84503 1.32998,2.00025 c -0.57327,0.97261 -1.01706,2.03024 -1.30634,3.14995 l -2.35303,0.47378 v 2.6095 2.6095 l 2.35303,0.47343 c 0.28928,1.12006 0.73307,2.17769 1.30634,3.14995 l -1.32998,2.00025 1.84539,1.84538 1.84502,1.84503 2.00025,-1.32998 c 0.97261,0.57327 2.02989,1.01706 3.14996,1.30669 l 0.47342,2.35268 h 2.6095 2.6095 l 0.47378,-2.35268 c 1.12007,-0.28963 2.17734,-0.73342 3.14995,-1.30669 l 2.00025,1.32998 1.84503,-1.84503 1.84538,-1.84538 -1.32997,-2.00025 c 0.57326,-0.97226 1.01706,-2.02989 1.30633,-3.14995 l 2.35303,-0.47343 v -2.6095 -2.6095 l -2.35303,-0.47378" />
    <path
       inkscape:connector-curvature="0"
       id="path3635"
       style="fill:#73c0ff;fill-opacity:1;fill-rule:nonzero;stroke:none;stroke-width:0.03527778"
       d="m 177.21306,196.52994 c -2.31528,0 -4.19241,-1.87678 -4.19241,-4.19206 0,-2.31493 1.87713,-4.19206 4.19241,-4.19206 2.31528,0 4.19206,1.87713 4.19206,4.19206 0,2.31528 -1.87678,4.19206 -4.19206,4.19206 z m 5.45536,-5.60529 c -0.13265,-0.51364 -0.3362,-0.99836 -0.59902,-1.44427 l 0.60995,-0.91687 -0.84596,-0.84596 -0.84596,-0.84596 -0.91687,0.6096 c -0.44591,-0.26282 -0.93063,-0.46602 -1.44427,-0.59866 l -0.21696,-1.0788 h -1.19627 -1.19627 l -0.21766,1.0788 c -0.51329,0.13264 -0.99801,0.33584 -1.44357,0.59866 l -0.91722,-0.6096 -0.84561,0.84596 -0.84631,0.84596 0.60995,0.91687 c -0.26282,0.44591 -0.46637,0.93063 -0.59937,1.44427 l -1.07809,0.21696 v 1.19627 1.19627 l 1.07809,0.21731 c 0.133,0.5133 0.33655,0.99801 0.59937,1.44392 l -0.60995,0.91723 0.84631,0.8456 0.84561,0.84632 0.91722,-0.60996 c 0.44556,0.26282 0.93028,0.46638 1.44357,0.59902 l 0.21766,1.07844 h 1.19627 1.19627 l 0.21696,-1.07844 c 0.51364,-0.13264 0.99836,-0.3362 1.44427,-0.59902 l 0.91687,0.60996 0.84596,-0.84632 0.84596,-0.8456 -0.60995,-0.91723 c 0.26282,-0.44591 0.46637,-0.93062 0.59902,-1.44392 l 1.07879,-0.21731 v -1.19627 -1.19627 l -1.07879,-0.21696" />
    <path
       inkscape:connector-curvature="0"
       id="path3637"
       style="fill:#4da8f2;fill-opacity:1;fill-rule:nonzero;stroke:none;stroke-width:0.03527778"
       d="m 106.84271,274.06129 h 12.83723 v -38.99143 h -12.83723 v 38.99143" />
    <path
       inkscape:connector-curvature="0"
       id="path3639"
       style="fill:#b5deff;fill-opacity:1;fill-rule:nonzero;stroke:none;stroke-width:0.03527778"
       d="m 63.474325,253.85245 h 99.574005 c 3.11397,0 5.63774,-2.52447 5.63774,-5.63809 v -66.92301 c 0,-3.11362 -2.52377,-5.63774 -5.63774,-5.63774 H 63.474325 c -3.113617,0 -5.637742,2.52412 -5.637742,5.63774 v 66.92301 c 0,3.11362 2.524125,5.63809 5.637742,5.63809" />
    <path
       inkscape:connector-curvature="0"
       id="path3641"
       style="fill:#ffffff;fill-opacity:1;fill-rule:nonzero;stroke:none;stroke-width:0.03527778"
       d="M 62.177867,241.59766 H 164.34514 V 167.33052 H 62.177867 v 74.26714" />
    <g
       id="g3643"
       transform="matrix(0.03527778,0,0,-0.03527778,0.26218762,297.78352)">
      <g
         clip-path="url(#clipPath3649)"
         id="g3645">
        <path
           inkscape:connector-curvature="0"
           id="path3657"
           style="fill:url(#linearGradient3655);fill-opacity:1;fill-rule:nonzero;stroke:none"
           d="m 1755.09,3443.61 h 2896.08 v 254.27 H 1755.09 v -254.27" />
      </g>
    </g>
    <path
       inkscape:connector-curvature="0"
       id="path3659"
       style="fill:#4da8f2;fill-opacity:1;fill-rule:nonzero;stroke:none;stroke-width:0.03527778"
       d="m 109.68575,247.20541 c 0,1.9745 1.60055,3.57576 3.57575,3.57576 1.97485,0 3.57541,-1.60126 3.57541,-3.57576 0,-1.97485 -1.60056,-3.57575 -3.57541,-3.57575 -1.9752,0 -3.57575,1.6009 -3.57575,3.57575" />
    <path
       inkscape:connector-curvature="0"
       id="path3661"
       style="fill:#dfe1e8;fill-opacity:1;fill-rule:nonzero;stroke:none;stroke-width:0.03527778"
       d="m 96.661896,185.33877 h 30.514574 c 0.6858,0 1.24107,-0.55562 1.24107,-1.24072 v -0.17674 c 0,-0.68509 -0.55527,-1.24072 -1.24107,-1.24072 H 96.661896 c -0.685094,0 -1.240719,0.55563 -1.240719,1.24072 v 0.17674 c 0,0.6851 0.555625,1.24072 1.240719,1.24072" />
    <path
       inkscape:connector-curvature="0"
       id="path3663"
       style="fill:#dfe1e8;fill-opacity:1;fill-rule:nonzero;stroke:none;stroke-width:0.03527778"
       d="m 96.661896,190.13267 h 30.514574 c 0.6858,0 1.24107,-0.55563 1.24107,-1.24107 v -0.17639 c 0,-0.6851 -0.55527,-1.24072 -1.24107,-1.24072 H 96.661896 c -0.685094,0 -1.240719,0.55562 -1.240719,1.24072 v 0.17639 c 0,0.68544 0.555625,1.24107 1.240719,1.24107" />
    <path
       inkscape:connector-curvature="0"
       id="path3665"
       style="fill:#dfe1e8;fill-opacity:1;fill-rule:nonzero;stroke:none;stroke-width:0.03527778"
       d="m 96.661896,194.92657 h 30.514574 c 0.6858,0 1.24107,-0.55563 1.24107,-1.24072 v -0.17639 c 0,-0.68545 -0.55527,-1.24107 -1.24107,-1.24107 H 96.661896 c -0.685094,0 -1.240719,0.55562 -1.240719,1.24107 v 0.17639 c 0,0.68509 0.555625,1.24072 1.240719,1.24072" />
    <path
       inkscape:connector-curvature="0"
       id="path3667"
       style="fill:#dfe1e8;fill-opacity:1;fill-rule:nonzero;stroke:none;stroke-width:0.03527778"
       d="m 72.699112,202.21919 c -2.792942,0 -5.065184,2.27259 -5.065184,5.06589 v 23.29568 c 0,2.79329 2.272242,5.06554 5.065184,5.06554 h 38.297558 c 2.79294,0 5.06518,-2.27225 5.06518,-5.06554 v -23.29568 c 0,-2.7933 -2.27224,-5.06589 -5.06518,-5.06589 z m 38.297558,34.15312 H 72.699112 c -3.192992,0 -5.791201,-2.59785 -5.791201,-5.79155 v -23.29568 c 0,-3.1937 2.598209,-5.79155 5.791201,-5.79155 h 38.297558 c 3.19334,0 5.7912,2.59785 5.7912,5.79155 v 23.29568 c 0,3.1937 -2.59786,5.79155 -5.7912,5.79155" />
    <path
       inkscape:connector-curvature="0"
       id="path3669"
       style="fill:#dfe1e8;fill-opacity:1;fill-rule:nonzero;stroke:none;stroke-width:0.03527778"
       d="m 75.728415,210.27311 h 32.238955 c 1.41252,0 2.55764,-1.14512 2.55764,-2.55764 v -0.48684 c 0,-1.41252 -1.14512,-2.55764 -2.55764,-2.55764 H 75.728415 c -1.412523,0 -2.557639,1.14512 -2.557639,2.55764 v 0.48684 c 0,1.41252 1.145116,2.55764 2.557639,2.55764" />
    <path
       inkscape:connector-curvature="0"
       id="path3671"
       style="fill:#b5deff;fill-opacity:1;fill-rule:nonzero;stroke:none;stroke-width:0.03527778"
       d="M 142.13778,275.53315 H 84.384876 v -2.94361 h 57.752904 v 2.94361" />
    <path
       inkscape:connector-curvature="0"
       id="path3673"
       style="fill:#eef0f7;fill-opacity:1;fill-rule:nonzero;stroke:none;stroke-width:0.03527778"
       d="m 152.85517,209.14739 c 0,3.0607 -1.65383,5.73476 -4.11692,7.17832 -0.49495,0.28928 -1.0227,0.52988 -1.57621,0.71332 -0.0497,0.0169 -0.10019,0.0332 -0.15028,0.0487 -0.78035,0.24236 -1.60973,0.37254 -2.46945,0.37254 -1.3275,0 -2.58198,-0.3108 -3.69535,-0.86395 -2.73685,-1.36067 -4.61821,-4.18501 -4.61821,-7.44891 0,-4.59105 3.72216,-8.31321 8.31356,-8.31321 4.59105,0 8.31286,3.72216 8.31286,8.31321" />
    <path
       inkscape:connector-curvature="0"
       id="path3675"
       style="fill:#3c4145;fill-opacity:1;fill-rule:nonzero;stroke:none;stroke-width:0.03527778"
       d="m 142.55617,208.27003 c 0,0 -0.56762,-3.67347 2.47474,-3.60574 3.04235,0.0677 3.00143,1.88419 2.9471,3.68688 -0.054,1.8027 -1.2199,1.66723 0.0952,4.17513 1.31445,2.50754 -1.13876,2.50754 -1.13876,2.50754 l -1.90359,-2.6162 -2.47474,-4.14761" />
    <path
       inkscape:connector-curvature="0"
       id="path3677"
       style="fill:#eea886;fill-opacity:1;fill-rule:nonzero;stroke:none;stroke-width:0.03527778"
       d="m 144.69789,205.01672 c 0,0 -2.06058,0.32526 -2.14172,3.25331 -0.0811,2.92771 0.55598,3.55142 2.35867,2.94147 1.8027,-0.60996 2.37208,-3.67348 2.41265,-4.14797 0.0409,-0.47448 0.14923,-2.39924 -2.6296,-2.04681" />
    <path
       inkscape:connector-curvature="0"
       id="path3679"
       style="fill:#e55353;fill-opacity:1;fill-rule:nonzero;stroke:none;stroke-width:0.03527778"
       d="m 148.31597,215.20035 c 0.006,0.87701 -0.46284,1.46368 -1.15393,1.83868 -0.0497,0.0169 -0.10019,0.0332 -0.15028,0.0487 -0.78035,0.24236 -1.60973,0.37254 -2.46945,0.37254 -1.3275,0 -2.58198,-0.3108 -3.69535,-0.86395 -0.25082,-0.49989 0.11254,-1.20968 0.84984,-2.29906 0.50589,-0.74859 1.0026,-1.51306 1.85209,-1.88454 1.25271,-0.19967 2.57951,-0.21166 3.51367,0.31645 0.74506,0.42121 1.24142,1.18533 1.25341,2.4712" />
    <path
       inkscape:connector-curvature="0"
       id="path3681"
       style="fill:#e55353;fill-opacity:1;fill-rule:nonzero;stroke:none;stroke-width:0.03527778"
       d="m 142.10003,214.25315 -0.94721,1.49295 c 0.002,-0.008 0.0653,-0.23424 0.17251,-0.889 0.0201,-0.12418 0.0423,-0.26388 0.0656,-0.42051 0.007,-0.0462 0.0166,-0.0924 0.0296,-0.13758 v -3.6e-4 c 0.40569,-0.9345 1.67005,-1.62983 1.71591,-1.65311 l -1.03646,1.60761" />
    <path
       inkscape:connector-curvature="0"
       id="path3683"
       style="fill:#eea886;fill-opacity:1;fill-rule:nonzero;stroke:none;stroke-width:0.03527778"
       d="m 148.73825,216.32571 c -0.49495,0.28928 -1.0227,0.52988 -1.57621,0.71332 -0.0497,0.0169 -0.10019,0.0332 -0.15028,0.0487 -0.21026,-0.54257 -0.39229,-1.01176 -0.43216,-1.13347 -0.0113,-0.0349 -0.0385,-0.10125 -0.0755,-0.19015 -0.17075,-0.41522 -0.55316,-1.33808 -0.55774,-2.06057 -0.003,-0.46532 0.15063,-0.84737 0.61912,-0.95568 0.18486,-0.0427 0.3496,-0.0455 0.49707,-0.0187 0.52352,0.0949 0.82867,0.56479 0.99871,0.98142 0.003,0.007 0.006,0.0141 0.008,0.0212 0.14217,0.35419 0.18662,0.66393 0.18662,0.66393 0,0 0.008,0.0328 0.0236,0.0917 0.0293,0.11606 0.0854,0.33655 0.1584,0.62583 0.0832,0.33196 0.18838,0.75353 0.30021,1.21249" />
    <path
       inkscape:connector-curvature="0"
       id="path3685"
       style="fill:#eea886;fill-opacity:1;fill-rule:nonzero;stroke:none;stroke-width:0.03527778"
       d="m 146.07407,209.89246 c -0.17886,0.33725 -0.36724,2.43099 -0.36724,2.43099 0,0 -2.52024,0.9525 -2.26201,0.41346 0.11677,-0.24448 0.15099,-0.56163 0.15346,-0.83503 0.002,-0.2159 -0.0155,-0.40428 -0.0279,-0.5087 -0.007,-0.055 -0.0116,-0.0868 -0.0116,-0.0868 0,0 2.69381,-1.75119 2.5153,-1.41393" />
    <path
       inkscape:connector-curvature="0"
       id="path3687"
       style="fill:#3c4145;fill-opacity:1;fill-rule:nonzero;stroke:none;stroke-width:0.03527778"
       d="m 143.85757,207.11786 c 0,0 1.05727,1.7212 2.01965,2.39924 0.96273,0.67769 0.47449,1.21991 0.47449,1.21991 0,0 2.51107,-5.28673 0.12347,-5.65256 -2.38725,-0.36583 -3.85128,-0.39299 -3.91901,3.18558 0,0 1.08444,-1.17933 1.3014,-1.15217" />
    <path
       inkscape:connector-curvature="0"
       id="path3689"
       style="fill:#a77860;fill-opacity:1;fill-rule:nonzero;stroke:none;stroke-width:0.03527778"
       d="m 145.00727,211.17763 c -0.38664,0.57044 -1.40864,0.72425 -1.40864,0.72425 0,0 0,0 -3.5e-4,0 0.002,-0.2159 -0.0155,-0.40428 -0.0279,-0.5087 0.65616,0.12664 1.43686,-0.21555 1.43686,-0.21555" />
    <path
       inkscape:connector-curvature="0"
       id="path3691"
       style="fill:#bd4444;fill-opacity:1;fill-rule:nonzero;stroke:none;stroke-width:0.03527778"
       d="m 141.42517,214.28772 c -3.6e-4,0 -3.6e-4,0 -3.6e-4,0 0,0 -0.0547,0.11359 -0.0995,0.56938 l 0.37112,-0.55986 c 0,0 0.66252,-0.95073 0.89006,-1.19768 0.22719,-0.2473 0.55598,-0.46425 0.55598,-0.46425 0,0 -1.32115,0.62724 -1.71732,1.65241" />
    <path
       inkscape:connector-curvature="0"
       id="path3693"
       style="fill:#e55353;fill-opacity:1;fill-rule:nonzero;stroke:none;stroke-width:0.03527778"
       d="m 146.43955,215.70518 c 0,0 1.61749,-0.63465 2.09585,-0.67134 0,0 -0.32526,-2.59715 -1.91417,-2.32198 -1.58856,0.27517 -0.18168,2.99332 -0.18168,2.99332" />
    <path
       inkscape:connector-curvature="0"
       id="path3695"
       style="fill:#eea886;fill-opacity:1;fill-rule:nonzero;stroke:none;stroke-width:0.03527778"
       d="m 143.54889,212.4127 c 0,0 -1.18745,1.82598 -0.78564,1.98508 0.40217,0.15981 2.57775,-0.21272 3.50309,-1.94698 0,0 -1.38325,-0.70943 -2.71745,-0.0381" />
    <path
       inkscape:connector-curvature="0"
       id="path3697"
       style="fill:#323657;fill-opacity:1;fill-rule:nonzero;stroke:none;stroke-width:0.03527778"
       d="m 56.104444,253.72334 -12.954354,0.0984 -0.0092,-1.18674 12.954706,-0.0981 0.0088,1.1864" />
    <path
       inkscape:connector-curvature="0"
       id="path3699"
       style="fill:#323657;fill-opacity:1;fill-rule:nonzero;stroke:none;stroke-width:0.03527778"
       d="m 59.897158,241.33484 -3.788481,12.3885 -1.134886,-0.34678 3.788834,-12.38815 1.134533,0.34643" />
    <path
       inkscape:connector-curvature="0"
       id="path3701"
       style="fill:#706865;fill-opacity:1;fill-rule:nonzero;stroke:none;stroke-width:0.03527778"
       d="m 79.382134,286.41388 h -1.010708 v -31.14291 h 1.010708 v 31.14291" />
    <path
       inkscape:connector-curvature="0"
       id="path3703"
       style="fill:#b59074;fill-opacity:1;fill-rule:nonzero;stroke:none;stroke-width:0.03527778"
       d="M 40.446754,255.27097 H 84.87559 v -1.77059 H 40.446754 v 1.77059" />
    <path
       inkscape:connector-curvature="0"
       id="path3705"
       style="fill:#706865;fill-opacity:1;fill-rule:nonzero;stroke:none;stroke-width:0.03527778"
       d="m 46.131063,286.41455 h 1.011061 v -31.14358 h -1.011061 v 31.14358" />
    <path
       inkscape:connector-curvature="0"
       id="path3707"
       style="fill:#918783;fill-opacity:1;fill-rule:nonzero;stroke:none;stroke-width:0.03527778"
       d="m 27.038975,281.30382 h -1.215284 v -15.33811 h 1.215284 v 15.33811" />
    <path
       inkscape:connector-curvature="0"
       id="path3709"
       style="fill:#1d3b54;fill-opacity:1;fill-rule:nonzero;stroke:none;stroke-width:0.03527778"
       d="m 41.684651,279.49474 c 0,0 0.01235,0.67815 0.232128,1.46763 0.16122,0.57891 0.485422,2.82085 0.899231,3.13446 0.413455,0.31352 1.748014,1.14435 1.551869,1.99803 -0.195791,0.85383 -0.361597,1.44928 -1.802341,0.94382 -1.440745,-0.50602 -2.404181,-0.79484 -2.681112,-2.05962 -0.276578,-1.26435 -1.065036,-2.41582 -1.065036,-2.41582 l -1.0414,2.59041 -0.549275,-0.22115 c 0,0 0.830439,-2.79785 0.758825,-3.04726 -0.07126,-0.24942 0.381,-2.4722 2.123722,-3.02303 1.74237,-0.55023 1.573389,0.63253 1.573389,0.63253" />
    <path
       inkscape:connector-curvature="0"
       id="path3711"
       style="fill:#1d3b54;fill-opacity:1;fill-rule:nonzero;stroke:none;stroke-width:0.03527778"
       d="m 51.309135,280.3122 c 0,0 0.264231,0.6241 0.762706,1.27455 0.365478,0.47692 1.502481,2.43597 2.003425,2.57253 0.500944,0.13656 2.048933,0.40996 2.185458,1.27494 0.136878,0.86501 0.204964,1.4799 -1.320447,1.54823 -1.525411,0.0682 -2.526947,0.15917 -3.255433,-0.91073 -0.728487,-1.07033 -1.889478,-1.84411 -1.889478,-1.84411 v 2.79164 h -0.591961 c 0,0 -0.27305,-2.90516 -0.432506,-3.11009 -0.159456,-0.20507 -0.569383,-2.43597 0.842433,-3.59696 1.411464,-1.16142 1.695803,0 1.695803,0" />
    <path
       inkscape:connector-curvature="0"
       id="path3713"
       style="fill:#eea886;fill-opacity:1;fill-rule:nonzero;stroke:none;stroke-width:0.03527778"
       d="m 35.799612,242.37518 c 0,0 0.33902,-1.20227 0.372181,-1.35925 0.03281,-0.15628 0.353836,-0.46779 0.75318,-0.79305 0.399698,-0.32561 1.084792,-0.58631 1.169811,-0.55986 0.08467,0.0265 0.182739,0.0138 0.322792,0.19368 0.140053,0.17992 0.159103,0.40922 0.159103,0.40922 0,0 0.27693,0.14076 0.279047,0.4251 0,0 0.254706,0.14429 0.204611,0.46743 0,0 0.244475,0.14817 0.188384,0.37959 0,0 -0.321028,0.31291 -0.406753,0.46249 -0.08537,0.15028 -0.797631,0.75459 -1.569861,1.22873 0,0 -0.986014,0.72813 -1.472495,-0.85408" />
    <path
       inkscape:connector-curvature="0"
       id="path3715"
       style="fill:#cf8c6c;fill-opacity:1;fill-rule:nonzero;stroke:none;stroke-width:0.03527778"
       d="m 37.274929,241.42233 c 0,0 0.14605,0.50623 0.115358,0.66922 -0.03104,0.16263 1.1557,0.18626 1.1557,0.18626 0,0 -0.651228,-1.01635 -1.271058,-0.85548" />
    <path
       inkscape:connector-curvature="0"
       id="path3717"
       style="fill:#1d3b54;fill-opacity:1;fill-rule:nonzero;stroke:none;stroke-width:0.03527778"
       d="m 23.914987,244.44246 c 0.479284,-0.77576 1.11827,-1.12536 3.148541,0.27905 2.030131,1.4037 1.553316,1.12888 2.039197,1.57409 0.486199,0.4445 2.616236,1.55822 2.616236,1.55822 0,0 1.244212,-1.23684 1.8409,-2.11596 0.672642,-0.99025 2.076768,-3.63608 2.076768,-3.63608 l 1.9685,1.46544 c 0,0 -3.8245,6.9342 -4.623365,7.44678 -0.798548,0.51224 -3.205586,-0.34501 -4.458617,-0.87277 -1.252926,-0.52811 -2.579441,-1.21144 -3.151717,-1.35325 -0.572312,-0.14182 -2.706053,-2.32199 -1.456443,-4.34552" />
    <path
       inkscape:connector-curvature="0"
       id="path3719"
       style="fill:#eb4747;fill-opacity:1;fill-rule:nonzero;stroke:none;stroke-width:0.03527778"
       d="m 37.746946,240.8092 -0.367242,-0.0808 0.957439,-4.34481 0.367594,0.0811 -0.957791,4.34446" />
    <path
       inkscape:connector-curvature="0"
       id="path3721"
       style="fill:#db9c7c;fill-opacity:1;fill-rule:nonzero;stroke:none;stroke-width:0.03527778"
       d="m 37.986834,239.74416 c 0,0 -0.992364,0.84985 -0.875241,1.02659 0.116769,0.17639 0.267053,0.17039 0.267053,0.17039 l -0.249767,0.53516 c 0,0 0.03457,0.44732 0.51188,0.27905 0,0 -0.01094,0.42157 0.430389,0.20391 0,0 0.11677,0.28116 0.339373,0.2166 0.22225,-0.0646 0.8382,-0.63782 0.8382,-0.63782 0,0 0.07549,-0.17886 -0.188384,-0.37959 0,0 0.06632,-0.30656 -0.204611,-0.46743 0,0 0.01482,-0.25435 -0.279047,-0.4251 0,0 -0.01164,-0.56868 -0.481895,-0.6029 0,0 -0.06632,0.0452 -0.10795,0.0811" />
    <path
       inkscape:connector-curvature="0"
       id="path3723"
       style="fill:#eea886;fill-opacity:1;fill-rule:nonzero;stroke:none;stroke-width:0.03527778"
       d="m 36.185551,241.02898 c 0,0 0.664633,-0.60113 1.171928,-0.77047 0.114653,-0.0381 0.232833,-0.0543 0.311503,0.0381 0.07867,0.0924 0.04551,0.32315 -0.229306,0.59831 -0.274814,0.27517 -0.503767,0.75671 -0.503767,0.75671 0,0 -0.365125,0.20003 -0.750358,-0.62265" />
    <path
       inkscape:connector-curvature="0"
       id="path3725"
       style="fill:#152c3d;fill-opacity:1;fill-rule:nonzero;stroke:none;stroke-width:0.03527778"
       d="m 33.378639,248.65392 c 0,0 0.399768,-1.44851 -0.07108,-2.57034 0,0 0.179141,1.16099 -0.329353,1.98649 -0.368371,0.59831 0.400438,0.58385 0.400438,0.58385" />
    <path
       inkscape:connector-curvature="0"
       id="path3727"
       style="fill:#eddad3;fill-opacity:1;fill-rule:nonzero;stroke:none;stroke-width:0.03527778"
       d="m 40.631962,248.87829 c 0,0 1.071387,-7.94103 2.940051,-11.40319 h -2.747787 c 0,0 -3.077633,5.4229 -2.500489,10.89977 l 2.308225,0.50342" />
    <path
       inkscape:connector-curvature="0"
       id="path3729"
       style="fill:#eea886;fill-opacity:1;fill-rule:nonzero;stroke:none;stroke-width:0.03527778"
       d="m 41.28954,242.93327 c 0,0 0.31362,-0.5842 0.389114,-0.77505 0.07549,-0.1905 0.38347,0.14041 0.336903,0.38524 -0.04621,0.24482 -0.726017,0.38981 -0.726017,0.38981" />
    <path
       inkscape:connector-curvature="0"
       id="path3731"
       style="fill:#eea886;fill-opacity:1;fill-rule:nonzero;stroke:none;stroke-width:0.03527778"
       d="m 43.726529,244.26113 c 0,0 -0.08326,0.28646 -0.180269,0.3937 0,0 -0.191911,0.18168 -0.320675,0.31962 -0.04057,0.0437 -0.07514,0.0825 -0.09455,0.11006 -0.0822,0.11466 -0.227894,0.39194 -0.502708,0.61278 -0.274108,0.22084 -1.322211,0.90276 -1.322211,0.90276 l -0.739423,-0.78987 -0.591961,-0.6156 c 0,0 0.500239,-1.88031 0.732367,-2.11561 0.02258,-0.0233 0.04586,-0.0448 0.0695,-0.0635 0.2159,-0.18027 0.451909,-0.22401 0.575734,-0.30515 0.04551,-0.03 0.519994,-0.29492 0.670983,-0.23636 0.210256,0.0811 0.323144,0.22295 0.3556,0.37359 0,0 0.404636,0.17745 0.539397,0.44203 0,0 0.378531,0.15169 0.452614,0.52881 0,0 0.366536,0.19685 0.3556,0.44274" />
    <path
       inkscape:connector-curvature="0"
       id="path3733"
       style="fill:#eea886;fill-opacity:1;fill-rule:nonzero;stroke:none;stroke-width:0.03527778"
       d="m 48.590982,264.76736 c 0,0 -1.815747,4.08521 -3.111853,7.0006 -0.217311,0.49071 -0.420864,0.94795 -0.598311,1.34687 -0.207786,0.46771 -0.380294,0.85509 -0.49918,1.12285 -0.824795,1.85565 -2.853973,5.90268 -2.853973,5.90268 0,0 -1.526469,0.0583 -1.615017,-1.23818 0,0 1.464734,-2.80885 1.464734,-4.78232 0,-1.97404 0.264936,-7.78786 2.150533,-9.04491 2.299406,-1.53236 3.792362,-1.82273 5.063067,-0.30759" />
    <path
       inkscape:connector-curvature="0"
       id="path3735"
       style="fill:#eea886;fill-opacity:1;fill-rule:nonzero;stroke:none;stroke-width:0.03527778"
       d="m 31.802181,257.00276 c 0,0 0.383081,0.38312 0.707214,0.47131 0.323956,0.0885 5.744845,0.5013 8.248862,1.32609 2.504369,0.8248 5.833534,1.35537 6.451953,2.06234 0.618772,0.70697 1.649942,4.59567 1.620308,5.33224 -0.02928,0.73656 2.200981,13.14841 2.478617,14.11746 0.147461,0.51333 -2.01683,0.31679 -2.01683,0.31679 0,0 -3.075164,-7.33432 -3.731684,-8.68934 -1.206853,-2.48941 -1.267178,-5.53847 -1.708856,-6.01017 -0.44203,-0.47131 -5.361869,-1.53183 -8.190089,-1.53183 -2.828325,0 -9.162345,0.23566 -9.840031,-0.14746 -0.677581,-0.38308 -4.919875,-3.18167 -3.15214,-6.92323 1.767487,-3.74121 9.132676,-0.3242 9.132676,-0.3242" />
    <path
       inkscape:connector-curvature="0"
       id="path3737"
       style="fill:#1d3b54;fill-opacity:1;fill-rule:nonzero;stroke:none;stroke-width:0.03527778"
       d="m 44.035915,259.68211 -4.48698,8.63427 c 0,0 -1.351492,-3.20393 -3.709459,-3.75571 -2.358284,-0.55107 -11.768773,-0.25576 -11.768773,-0.25576 0,0 -4.318247,-5.46241 -0.620254,-8.32803 3.697958,-2.86561 8.016452,0.45085 8.016452,0.45085 0,0 0.892281,0.96732 1.323728,0.98848 3.137747,0.15629 6.483492,0.74084 11.245286,2.2659" />
    <path
       inkscape:connector-curvature="0"
       id="path3739"
       style="fill:#eea886;fill-opacity:1;fill-rule:nonzero;stroke:none;stroke-width:0.03527778"
       d="m 54.075266,284.15928 c 0,0 -1.365956,0.34173 -1.889478,0 -0.523522,-0.34121 -2.303992,-3.35002 -2.893483,-3.53029 0,0 0.5715,-1.15919 2.01683,-0.31679 0,0 2.379134,3.34641 2.766131,3.84708" />
    <path
       inkscape:connector-curvature="0"
       id="path3741"
       style="fill:#eea886;fill-opacity:1;fill-rule:nonzero;stroke:none;stroke-width:0.03527778"
       d="m 42.81601,284.09683 c 0,0 -1.394884,-0.19304 -1.753306,-0.70527 -0.358422,-0.51181 -0.887589,-3.96766 -1.367719,-4.35501 0,0 0.96273,-0.8625 1.989666,0.45819 0,0 0.95885,3.99246 1.131359,4.60209" />
    <path
       inkscape:connector-curvature="0"
       id="path3743"
       style="fill:#eea886;fill-opacity:1;fill-rule:nonzero;stroke:none;stroke-width:0.03527778"
       d="m 28.564492,229.88755 c 1.077736,-0.0522 3.467947,0.49001 3.836318,3.34575 0,0 -0.08615,0.76976 -0.273015,1.37512 -0.186866,0.60467 0.355141,2.38831 0.213748,2.4765 -0.141393,0.0875 -0.726087,0.20038 -0.726087,0.20038 0,0 -0.628509,1.94839 -1.312722,1.93181 -0.684071,-0.0169 -3.273672,-0.55139 -4.493366,-2.97568 -1.219553,-2.42393 -1.596319,-6.14327 2.755124,-6.35388" />
    <path
       inkscape:connector-curvature="0"
       id="path3745"
       style="fill:#eea886;fill-opacity:1;fill-rule:nonzero;stroke:none;stroke-width:0.03527778"
       d="m 29.378633,238.32847 c 0,0 -0.08407,0.27305 -0.179705,0.67839 -0.04893,0.20708 -0.100754,0.44838 -0.145944,0.70555 -0.124002,0.71085 -0.196921,1.542 -0.01266,2.09515 0,0 -1.512394,0.52388 -2.707288,-1.6136 0,0 0.513045,-2.30294 -0.153811,-3.69959 -0.666679,-1.39594 3.199413,1.8341 3.199413,1.8341" />
    <path
       inkscape:connector-curvature="0"
       id="path3747"
       style="fill:#1d3b54;fill-opacity:1;fill-rule:nonzero;stroke:none;stroke-width:0.03527778"
       d="m 32.40081,233.2333 c 0,0 -1.653399,1.48413 -3.40226,1.36666 -1.776025,-0.11959 -2.929008,2.10008 -2.929008,2.10008 0,0 -2.643647,-3.31787 -0.512481,-6.00004 2.131272,-2.68323 7.221715,-0.79551 6.843749,2.5333" />
    <path
       inkscape:connector-curvature="0"
       id="path3749"
       style="fill:#eea886;fill-opacity:1;fill-rule:nonzero;stroke:none;stroke-width:0.03527778"
       d="m 28.193229,234.5869 c -0.0094,-0.33619 -0.383364,-0.84066 -0.934015,-0.38135 -0.550968,0.45967 0.189724,2.0574 0.641033,1.90112 0.45145,-0.15663 0.302895,-1.17228 0.292982,-1.51977" />
    <path
       inkscape:connector-curvature="0"
       id="path3751"
       style="fill:#a77860;fill-opacity:1;fill-rule:nonzero;stroke:none;stroke-width:0.03527778"
       d="m 29.198928,239.00686 c -0.04893,0.20708 -0.100754,0.44838 -0.145944,0.70555 -1.404479,-0.89217 -2.111411,-1.97485 -2.111411,-1.97485 0.802817,0.72602 2.257355,1.2693 2.257355,1.2693" />
    <path
       inkscape:connector-curvature="0"
       id="path3753"
       style="fill:#1d3b54;fill-opacity:1;fill-rule:nonzero;stroke:none;stroke-width:0.03527778"
       d="m 33.299017,247.17613 c -0.318488,1.47532 -1.156053,1.55258 -1.105323,2.64266 0.05083,1.08973 0.376343,1.18322 -0.18729,2.90195 -0.104316,0.31785 -0.189054,0.66428 -0.257422,1.01777 -0.008,0.0416 -0.0164,0.084 -0.02342,0.12594 -0.03694,0.19826 -0.06809,0.39828 -0.09521,0.59513 -0.05016,0.36478 -0.08629,0.72108 -0.111478,1.04634 -0.06629,0.84808 0.558236,1.50284 0.558236,1.50284 0,0 -5.514376,3.30376 -9.300105,2.84021 0,0 0.980052,-4.11974 1.519978,-5.53508 0.539645,-1.415 0.376626,-7.95408 -0.02053,-9.35708 -0.586105,-2.07081 0.584835,-5.1756 2.185423,-5.58024 l 2.481862,1.14935 c 0,0 2.49989,2.98556 3.060736,3.43605 0.560317,0.45121 1.617839,1.71803 1.294553,3.21416" />
    <path
       inkscape:connector-curvature="0"
       id="path3755"
       style="fill:#1d3b54;fill-opacity:1;fill-rule:nonzero;stroke:none;stroke-width:0.03527778"
       d="m 25.095663,241.13093 c 0.700899,-0.58349 1.715135,-1.58256 3.194439,0.39335 1.479338,1.97626 2.555593,3.24944 2.87528,3.82588 0.319722,0.57643 3.100599,4.59105 3.100599,4.59105 0,0 1.477187,-1.3716 2.322089,-2.01507 0.952148,-0.72566 3.547181,-3.42935 3.547181,-3.42935 l 1.715206,1.90182 c 0,0 -5.950303,6.60259 -6.870242,6.83507 -0.920115,0.23283 -3.497192,-2.08597 -4.517778,-2.98485 -1.02041,-0.89853 -3.883978,-4.17089 -4.381465,-4.48734 -0.497452,-0.31608 -2.81298,-3.10832 -0.985309,-4.63056" />
    <path
       inkscape:connector-curvature="0"
       id="path3757"
       style="fill:#a77860;fill-opacity:1;fill-rule:nonzero;stroke:none;stroke-width:0.03527778"
       d="m 45.479129,271.76796 c -0.217311,0.49071 -0.420864,0.94795 -0.598311,1.34687 -0.667808,-2.1474 -0.612775,-5.73578 -0.612775,-5.73578 0.401109,2.50183 1.199092,4.36023 1.211086,4.38891" />
    <path
       inkscape:connector-curvature="0"
       id="path3759"
       style="fill:#b5deff;fill-opacity:1;fill-rule:nonzero;stroke:none;stroke-width:0.03527778"
       d="m 16.727139,264.30491 h 19.112337 v 2.10329 H 16.727139 v -2.10329" />
    <path
       inkscape:connector-curvature="0"
       id="path3761"
       style="fill:#b5deff;fill-opacity:1;fill-rule:nonzero;stroke:none;stroke-width:0.03527778"
       d="m 26.672298,257.59648 c 0,0 -0.481753,1.9484 1.786749,2.39113 2.26882,0.44274 5.058657,1.00824 5.058657,4.50815 h -7.868038 l 1.022632,-6.89928" />
    <path
       inkscape:connector-curvature="0"
       id="path3763"
       style="fill:#eea886;fill-opacity:1;fill-rule:nonzero;stroke:none;stroke-width:0.03527778"
       d="m 38.337143,236.3836 0.324908,-0.59866 0.04269,0.6798 z" />
    <path
       inkscape:connector-curvature="0"
       id="path3765"
       style="fill:#b5deff;fill-opacity:1;fill-rule:nonzero;stroke:none;stroke-width:0.03527778"
       d="m 16.727139,266.4082 -6.681576,-28.08114 c 0,0 12.079323,-1.88737 13.51841,3.53695 1.439086,5.42466 3.806719,21.53704 6.684892,22.53336 2.878173,0.99617 -13.521726,2.01083 -13.521726,2.01083" />
    <path
       inkscape:connector-curvature="0"
       id="path3767"
       style="fill:#152c3d;fill-opacity:1;fill-rule:nonzero;stroke:none;stroke-width:0.03527778"
       d="m 32.264108,251.78271 c 0,0 -0.123225,0.5154 -0.25467,0.94191 l -2.938816,-3.81106 3.193486,2.86915" />
    <path
       inkscape:connector-curvature="0"
       id="path3769"
       style="fill:#1d3b54;fill-opacity:1;fill-rule:nonzero;stroke:none;stroke-width:0.03527778"
       d="m 24.896556,234.31527 c 0,0 1.161803,3.06916 0.84582,3.90736 0,0 1.813383,-0.77434 1.482372,-2.78553 -0.331011,-2.01048 -2.328192,-1.12183 -2.328192,-1.12183" />
    <path
       inkscape:connector-curvature="0"
       id="path3771"
       style="fill:#1d3b54;fill-opacity:1;fill-rule:nonzero;stroke:none;stroke-width:0.03527778"
       d="m 29.086744,240.69666 v -0.60748 l -2.578594,-1.25589 -0.892139,1.03047 3.470733,0.8329" />
    <path
       inkscape:connector-curvature="0"
       id="path3773"
       style="fill:#bfb2ac;fill-opacity:1;fill-rule:nonzero;stroke:none;stroke-width:0.03527778"
       d="m 38.227782,285.26375 c 0,0.55178 -0.447323,0.99911 -0.999067,0.99911 -0.551745,0 -0.999067,-0.44733 -0.999067,-0.99911 0,-0.55202 0.447322,-0.99906 0.999067,-0.99906 0.551744,0 0.999067,0.44704 0.999067,0.99906" />
    <path
       inkscape:connector-curvature="0"
       id="path3775"
       style="fill:#918783;fill-opacity:1;fill-rule:nonzero;stroke:none;stroke-width:0.03527778"
       d="m 15.728037,284.27351 0.253012,0.7119 10.691249,-3.31255 -0.512516,-1.44141 -10.431745,4.04206" />
    <path
       inkscape:connector-curvature="0"
       id="path3777"
       style="fill:#918783;fill-opacity:1;fill-rule:nonzero;stroke:none;stroke-width:0.03527778"
       d="m 37.228715,284.27351 -0.252942,0.7119 -10.691248,-3.31255 0.469758,-1.53183 10.474432,4.13248" />
    <path
       inkscape:connector-curvature="0"
       id="path3779"
       style="fill:#918783;fill-opacity:1;fill-rule:nonzero;stroke:none;stroke-width:0.03527778"
       d="m 29.696133,284.90921 v 0.82804 l -3.411608,-4.06439 0.469758,-1.53183 2.94185,4.76818" />
    <path
       inkscape:connector-curvature="0"
       id="path3781"
       style="fill:#bfb2ac;fill-opacity:1;fill-rule:nonzero;stroke:none;stroke-width:0.03527778"
       d="m 29.781011,285.26375 c 0,0.55178 -0.447463,0.99911 -0.999208,0.99911 -0.551779,0 -0.999243,-0.44733 -0.999243,-0.99911 0,-0.55202 0.447464,-0.99906 0.999243,-0.99906 0.551745,0 0.999208,0.44704 0.999208,0.99906" />
    <path
       inkscape:connector-curvature="0"
       id="path3783"
       style="fill:#bfb2ac;fill-opacity:1;fill-rule:nonzero;stroke:none;stroke-width:0.03527778"
       d="m 16.727139,285.26375 c 0,0.55178 -0.447181,0.99911 -0.999102,0.99911 -0.551886,0 -0.999067,-0.44733 -0.999067,-0.99911 0,-0.55202 0.447181,-0.99906 0.999067,-0.99906 0.551921,0 0.999102,0.44704 0.999102,0.99906" />
    <path
       inkscape:connector-curvature="0"
       id="path3785"
       style="fill:#eef0f7;fill-opacity:1;fill-rule:nonzero;stroke:none;stroke-width:0.03527778"
       d="m 155.92574,184.89392 c 0,2.65077 -0.95285,5.07753 -2.53435,6.95889 -0.37042,0.43992 -0.77435,0.84985 -1.20897,1.22555 -0.12383,0.1069 -0.25083,0.21202 -0.37959,0.31292 -0.1457,0.11536 -0.29422,0.22613 -0.44556,0.33408 -1.42381,1.00894 -3.10233,1.6824 -4.91948,1.90465 -0.31997,0.0395 -0.64488,0.0645 -0.97332,0.0751 -0.11783,0.004 -0.23636,0.006 -0.35525,0.006 -0.34995,0 -0.69603,-0.0166 -1.03716,-0.049 -0.38136,-0.0363 -0.75706,-0.0921 -1.12572,-0.16757 -1.63865,-0.33232 -3.14289,-1.03505 -4.42136,-2.01789 -0.38594,-0.29598 -0.75071,-0.61701 -1.09185,-0.96168 -0.0667,-0.0667 -0.13229,-0.13476 -0.19685,-0.20355 -0.24271,-0.25611 -0.47131,-0.52423 -0.6865,-0.80327 -1.4157,-1.8288 -2.25778,-4.12292 -2.25778,-6.61388 0,-5.97394 4.84329,-10.81723 10.81722,-10.81723 5.97394,0 10.81652,4.84329 10.81652,10.81723" />
    <path
       inkscape:connector-curvature="0"
       id="path3787"
       style="fill:#d9c7c1;fill-opacity:1;fill-rule:nonzero;stroke:none;stroke-width:0.03527778"
       d="m 152.15526,190.86257 -0.79799,2.86279 c -1.42381,1.00894 -3.10233,1.6824 -4.91948,1.90465 -0.31997,0.0395 -0.64488,0.0645 -0.97332,0.0751 -0.11783,0.004 -0.23636,0.006 -0.35525,0.006 -0.34995,0 -0.69603,-0.0166 -1.03716,-0.049 -0.38136,-0.0363 -0.75706,-0.0921 -1.12572,-0.16757 -1.63865,-0.33232 -3.14289,-1.03505 -4.42136,-2.01789 -0.15275,-0.94651 -0.31715,-1.9939 -0.46179,-2.97357 0.79516,-0.29598 3.32529,-1.1564 4.92231,-1.69651 0.0222,-0.008 0.0448,-0.0148 0.0663,-0.0222 0.0353,-0.0123 0.0699,-0.024 0.10372,-0.0349 0.0949,-0.0321 0.18521,-0.0628 0.27129,-0.0917 0.0875,-0.0296 0.17074,-0.0575 0.24835,-0.0843 0.32703,-0.11007 0.55774,-0.18768 0.63994,-0.21484 7.1e-4,-7.1e-4 7.1e-4,-7.1e-4 0.001,-7.1e-4 0.0215,-0.007 0.0325,-0.0113 0.0325,-0.0113 l 0.0187,0.001 2.14735,0.16087 0.35984,0.0268 0.11253,0.008 c 0,0 0.0162,0.004 0.0487,0.0123 0.12947,0.0328 0.50588,0.13159 1.004,0.28364 7.1e-4,0 0.002,3.5e-4 0.002,3.5e-4 1.27141,0.38946 3.33481,1.12853 4.11269,2.02283" />
    <path
       inkscape:connector-curvature="0"
       id="path3789"
       style="fill:#eea987;fill-opacity:1;fill-rule:nonzero;stroke:none;stroke-width:0.03527778"
       d="m 145.67226,179.52288 c 0,0 2.57528,0.43462 2.13854,4.46616 -0.43709,4.0319 -2.70969,3.6763 -2.86244,3.67066 -0.1517,-0.006 -2.286,0.0487 -2.39889,-4.88104 0,0 -0.0325,-3.6449 3.12279,-3.25578" />
    <path
       inkscape:connector-curvature="0"
       id="path3791"
       style="fill:#eea987;fill-opacity:1;fill-rule:nonzero;stroke:none;stroke-width:0.03527778"
       d="m 146.80044,186.49094 c 0,0 -0.0885,1.65912 0.0681,2.02036 0.15698,0.36125 -2.06799,1.50389 -3.45017,0.2025 0,0 0.2794,-1.81399 0.19262,-2.45428 -0.0868,-0.64064 3.18946,0.23142 3.18946,0.23142" />
    <path
       inkscape:connector-curvature="0"
       id="path3793"
       style="fill:#eea987;fill-opacity:1;fill-rule:nonzero;stroke:none;stroke-width:0.03527778"
       d="m 147.86336,182.84957 c 0,0 0.28575,-0.2988 0.38594,0.008 0.10019,0.30692 -0.45649,1.66582 -0.42192,1.7272 0,0 -0.0526,0.11783 -0.11959,0.0519 -0.0674,-0.066 0.15557,-1.78682 0.15557,-1.78682" />
    <path
       inkscape:connector-curvature="0"
       id="path3795"
       style="fill:#eea987;fill-opacity:1;fill-rule:nonzero;stroke:none;stroke-width:0.03527778"
       d="m 142.5791,182.74092 c 0,0 -0.2734,-0.3101 -0.38594,-0.008 -0.11289,0.30198 0.29881,1.65912 0.35031,1.74273 0,0 0.0885,0.13934 0.1584,0.0762 0.0695,-0.0631 -0.12277,-1.81116 -0.12277,-1.81116" />
    <path
       inkscape:connector-curvature="0"
       id="path3797"
       style="fill:#e8734d;fill-opacity:1;fill-rule:nonzero;stroke:none;stroke-width:0.03527778"
       d="m 148.02811,182.50702 c -0.0892,0.55175 -0.17251,0.96168 -0.17251,0.96168 l -0.375,0.4893 c 0,0 0.0222,-1.08232 -0.0353,-1.25236 -0.0215,-0.0646 -0.0469,-0.17851 -0.0734,-0.30198 -0.0434,-0.20391 -0.0871,-0.43427 -0.11747,-0.51082 -0.048,-0.12277 -2.20698,-0.75318 -4.13033,0.13229 0,0 0.0166,0.16651 0.0152,0.35207 -3.5e-4,0.21625 -0.024,0.45791 -0.12312,0.4946 -0.1845,0.0674 -0.10759,1.26647 -0.10759,1.26647 l -0.29986,-0.34572 c 0,0 -0.0868,-0.62654 -0.17181,-1.34656 0,0 -3.5e-4,-0.002 -7e-4,-0.005 -0.0194,-0.16792 -0.0392,-0.34043 -0.0579,-0.51188 -0.043,-0.72425 0.0286,-2.03941 0.9719,-2.81164 0.63642,-0.2727 1.65242,-0.50412 3.34575,0.0145 0,0 0.38876,0.0257 0.49777,0.13088 1.0548,1.16064 0.83432,3.24449 0.83432,3.24449" />
    <path
       inkscape:connector-curvature="0"
       id="path3799"
       style="fill:#c78d71;fill-opacity:1;fill-rule:nonzero;stroke:none;stroke-width:0.03527778"
       d="m 143.78772,187.12065 c 0,0 0.41099,0.5708 1.36595,0.54928 0.95497,-0.0215 1.36949,-0.51964 1.36949,-0.51964 0,0 -0.45191,0.94579 -1.37372,0.93556 -0.92251,-0.01 -1.36172,-0.9652 -1.36172,-0.9652" />
    <path
       inkscape:connector-curvature="0"
       id="path3801"
       style="fill:#eea987;fill-opacity:1;fill-rule:nonzero;stroke:none;stroke-width:0.03527778"
       d="m 143.15589,188.74837 c 0,0 0.69004,1.20156 1.99955,1.3148 0.83114,0.0716 1.5501,-0.98072 1.88701,-1.49789 0,0 -1.8602,-0.79622 -3.88656,0.18309" />
    <path
       inkscape:connector-curvature="0"
       id="path3803"
       style="fill:#eddad3;fill-opacity:1;fill-rule:nonzero;stroke:none;stroke-width:0.03527778"
       d="m 146.80362,188.18534 c 0,0 -0.52635,0.68968 -1.64818,1.42769 l 0.69779,1.07491 1.18922,-2.12266 -0.23883,-0.37994" />
    <path
       inkscape:connector-curvature="0"
       id="path3805"
       style="fill:#eddad3;fill-opacity:1;fill-rule:nonzero;stroke:none;stroke-width:0.03527778"
       d="m 143.47092,188.3462 c 0,0 0.66993,0.83961 1.68452,1.26683 l -0.76553,1.10737 -1.33809,-1.93675 0.4191,-0.43745" />
    <path
       inkscape:connector-curvature="0"
       id="path3807"
       style="fill:#5073ab;fill-opacity:1;fill-rule:nonzero;stroke:none;stroke-width:0.03527778"
       d="m 145.15544,189.61303 0.59796,0.90981 c 0,0 -0.62759,0.3549 -1.21144,-0.0226 l 0.61348,-0.88723" />
    <path
       inkscape:connector-curvature="0"
       id="path3809"
       style="fill:#323657;fill-opacity:1;fill-rule:nonzero;stroke:none;stroke-width:0.03527778"
       d="m 152.84599,190.69359 c 0,0 -0.006,0.0205 -0.0173,0.0596 -0.0656,0.23354 -0.31785,1.13136 -0.64629,2.32516 -0.12383,0.1069 -0.25083,0.21202 -0.37959,0.31292 -0.1457,0.11536 -0.29422,0.22613 -0.44556,0.33408 -1.42381,1.00894 -3.10233,1.6824 -4.91948,1.90465 0.16016,-3.74439 0.60466,-7.06473 0.60466,-7.06473 0.35066,0.0921 0.68297,0.18379 0.99765,0.27411 7.1e-4,0 0.002,3.5e-4 0.002,3.5e-4 2.74461,0.78775 4.13632,1.4792 4.61116,1.74166 0.004,0.001 0.007,0.004 0.0102,0.006 0.12418,0.0691 0.18203,0.10654 0.18203,0.10654" />
    <path
       inkscape:connector-curvature="0"
       id="path3811"
       style="fill:#323657;fill-opacity:1;fill-rule:nonzero;stroke:none;stroke-width:0.03527778"
       d="m 142.94634,195.49419 c -1.63865,-0.33232 -3.14289,-1.03505 -4.42136,-2.01789 -0.38594,-0.29598 -0.75071,-0.61701 -1.09185,-0.96168 -0.0667,-0.0667 -0.13229,-0.13476 -0.19685,-0.20355 -0.18944,-0.80398 -0.31538,-1.32891 -0.32349,-1.36278 l -3.6e-4,-0.002 c 0,0 1.33844,-0.87948 6.07307,-2.14313 0,0 0,0.001 0,0.003 0,0.10831 0.003,3.14572 -0.0392,6.68797" />
    <path
       inkscape:connector-curvature="0"
       id="path3813"
       style="fill:#5073ab;fill-opacity:1;fill-rule:nonzero;stroke:none;stroke-width:0.03527778"
       d="m 145.49799,190.62268 c -0.0441,0.98601 -0.0487,2.89948 -0.0335,5.08247 -0.11783,0.004 -0.23636,0.006 -0.35525,0.006 -0.34995,0 -0.69603,-0.0166 -1.03716,-0.049 0.20814,-2.6924 0.5588,-4.37586 0.71861,-5.04191 0.0522,-0.21836 0.0843,-0.32702 0.0843,-0.32702 l 0.63465,0.10477 c -0.005,0.0688 -0.008,0.14359 -0.0116,0.22508" />
    <path
       inkscape:connector-curvature="0"
       id="path3815"
       style="fill:#323657;fill-opacity:1;fill-rule:nonzero;stroke:none;stroke-width:0.03527778"
       d="m 153.39139,191.85281 c -0.37042,0.43992 -0.77435,0.84985 -1.20897,1.22555 -0.12383,0.1069 -0.25083,0.21202 -0.37959,0.31292 l 0.8509,-2.80988 3.5e-4,-0.001 c 0.004,0.002 0.007,0.004 0.01,0.007 0.0526,0.0339 0.10689,0.0899 0.16475,0.16615 0.16722,0.21837 0.35842,0.60184 0.56268,1.09961" />
    <path
       inkscape:connector-curvature="0"
       id="path3817"
       style="fill:#323657;fill-opacity:1;fill-rule:nonzero;stroke:none;stroke-width:0.03527778"
       d="m 137.43313,192.51462 c -0.0667,-0.0667 -0.13229,-0.13476 -0.19685,-0.20355 -0.24271,-0.25611 -0.47131,-0.52423 -0.6865,-0.80327 0.12171,-0.2921 0.24377,-0.48825 0.36265,-0.56127 l 3.6e-4,0.002 0.52034,1.56633" />
    <path
       inkscape:connector-curvature="0"
       id="path3819"
       style="fill:#f5f7ff;fill-opacity:1;fill-rule:nonzero;stroke:none;stroke-width:0.03527778"
       d="M 79.798412,173.51048 H 67.663561 c -0.6731,0 -1.218847,-0.54539 -1.218847,-1.21849 v -0.9525 c 0,-0.6731 0.545747,-1.21885 1.218847,-1.21885 h 12.134851 c 0.6731,0 1.218495,0.54575 1.218495,1.21885 v 0.9525 c 0,0.6731 -0.545395,1.21849 -1.218495,1.21849" />
    <path
       inkscape:connector-curvature="0"
       id="path3821"
       style="fill:#78c2ff;fill-opacity:1;fill-rule:nonzero;stroke:none;stroke-width:0.03527778"
       d="m 69.46802,189.01119 c 0.02152,-1.6764 0.827616,-3.15948 2.064455,-4.10351 0.901348,-0.68898 2.029884,-1.09185 3.250848,-1.07633 2.244725,0.0286 4.141611,1.46297 4.865511,3.45511 l 0.0014,0.003 c 0.171803,0.47413 0.277284,0.97931 0.305859,1.50566 0.006,0.11606 0.0078,0.23318 0.0071,0.35136 -0.01552,1.18639 -0.423686,2.27507 -1.098197,3.14502 -0.974019,1.25624 -2.504722,2.05669 -4.216047,2.03447 -0.566209,-0.007 -1.108781,-0.10372 -1.616428,-0.27552 -2.096559,-0.70873 -3.594101,-2.70546 -3.564467,-5.03908 z m 3.003197,6.69854 c 0.676275,0.22931 1.400881,0.35737 2.154414,0.36724 2.283178,0.0293 4.325409,-1.03751 5.624337,-2.71215 0.900641,-1.16135 1.444625,-2.61408 1.464028,-4.19629 0.0021,-0.15699 -0.0011,-0.31398 -0.0092,-0.46849 -0.03739,-0.70309 -0.178858,-1.3783 -0.409222,-2.01189 -0.9652,-2.65677 -3.495675,-4.56953 -6.489348,-4.60834 -1.613252,-0.0208 -3.10515,0.50553 -4.300714,1.40758 -1.67005,1.25907 -2.75978,3.24909 -2.788355,5.50157 -0.03986,3.11115 1.956858,5.77462 4.754033,6.72077" />
    <path
       inkscape:connector-curvature="0"
       id="path3823"
       style="fill:#1a598c;fill-opacity:1;fill-rule:nonzero;stroke:none;stroke-width:0.03527778"
       d="m 78.864962,192.29167 1.384653,1.0728 c -1.298928,1.67499 -3.340806,2.74179 -5.623984,2.7125 -0.753533,-0.01 -1.477786,-0.13793 -2.154767,-0.36724 l 0.561975,-1.65911 c 0.507648,0.17145 1.050573,0.26776 1.61537,0.27481 1.711678,0.0222 3.242381,-0.77787 4.216753,-2.03376" />
    <path
       inkscape:connector-curvature="0"
       id="path3825"
       style="fill:#2273b5;fill-opacity:1;fill-rule:nonzero;stroke:none;stroke-width:0.03527778"
       d="m 79.955398,188.79458 1.749425,-0.0949 c 0.0081,0.15486 0.01164,0.3115 0.0092,0.46884 -0.02011,1.58221 -0.563739,3.03494 -1.464381,4.19594 l -1.384653,-1.0728 c 0.674864,-0.8703 1.082322,-1.95933 1.097845,-3.14537 0.0014,-0.11818 -0.0011,-0.23565 -0.0074,-0.35172" />
    <path
       inkscape:connector-curvature="0"
       id="path3827"
       style="fill:#2273b5;fill-opacity:1;fill-rule:nonzero;stroke:none;stroke-width:0.03527778"
       d="m 79.956104,188.79494 c -0.02857,-0.52635 -0.134056,-1.03153 -0.305859,-1.50566 l -0.0014,-0.003 1.646767,-0.59831 c 0.230364,0.63359 0.371828,1.3088 0.409222,2.01189 l -1.748719,0.0949" />
    <path
       inkscape:connector-curvature="0"
       id="path3829"
       style="fill:#4da8f2;fill-opacity:1;fill-rule:nonzero;stroke:none;stroke-width:0.03527778"
       d="m 70.505539,183.48739 c 1.195564,-0.90205 2.687462,-1.42839 4.300714,-1.40758 2.993673,0.0388 5.524148,1.95157 6.489348,4.60834 l -1.645356,0.60113 -0.0014,-0.003 c -0.7239,-1.99214 -2.620786,-3.42653 -4.865511,-3.45511 -1.220964,-0.0155 -2.3495,0.38735 -3.250848,1.07633 l -1.026936,-1.42029" />
    <path
       inkscape:connector-curvature="0"
       id="path3831"
       style="fill:#78c2ff;fill-opacity:1;fill-rule:nonzero;stroke:none;stroke-width:0.03527778"
       d="m 126.78595,209.65328 h -4.5339 c -0.901,0 -1.6316,-0.73061 -1.6316,-1.6316 v -4.5339 c 0,-0.901 0.7306,-1.6316 1.6316,-1.6316 h 4.5339 c 0.90134,0 1.63159,0.7306 1.63159,1.6316 v 4.5339 c 0,0.90099 -0.73025,1.6316 -1.63159,1.6316" />
    <path
       inkscape:connector-curvature="0"
       id="path3833"
       style="fill:#f3f3f3;fill-opacity:1;fill-rule:nonzero;stroke:none;stroke-width:0.03527778"
       d="m 124.2724,207.47205 -1.97132,-1.71838 c -0.16157,-0.14111 -0.1785,-0.38629 -0.0374,-0.54786 0.14076,-0.16158 0.38594,-0.17816 0.54751,-0.0374 l 1.39382,1.21497 1.98755,-2.21686 c 0.14358,-0.15981 0.38912,-0.17286 0.54857,-0.03 0.15981,0.14322 0.17286,0.38876 0.0296,0.54857 l -2.49838,2.78694" />
    <path
       inkscape:connector-curvature="0"
       id="path3835"
       style="fill:#78c2ff;fill-opacity:1;fill-rule:nonzero;stroke:none;stroke-width:0.03527778"
       d="m 126.78595,219.6443 h -4.5339 c -0.901,0 -1.6316,-0.73025 -1.6316,-1.6316 v -4.53355 c 0,-0.90099 0.7306,-1.6316 1.6316,-1.6316 h 4.5339 c 0.90134,0 1.63159,0.73061 1.63159,1.6316 v 4.53355 c 0,0.90135 -0.73025,1.6316 -1.63159,1.6316" />
    <path
       inkscape:connector-curvature="0"
       id="path3837"
       style="fill:#f3f3f3;fill-opacity:1;fill-rule:nonzero;stroke:none;stroke-width:0.03527778"
       d="m 124.2724,217.46342 -1.97132,-1.71838 c -0.16157,-0.14111 -0.1785,-0.38629 -0.0374,-0.54786 0.14076,-0.16157 0.38594,-0.17851 0.54751,-0.0378 l 1.39382,1.21532 1.98755,-2.21685 c 0.14358,-0.15981 0.38912,-0.17322 0.54857,-0.03 0.15981,0.14287 0.17286,0.38841 0.0296,0.54822 l -2.49838,2.78729" />
    <path
       inkscape:connector-curvature="0"
       id="path3839"
       style="fill:#78c2ff;fill-opacity:1;fill-rule:nonzero;stroke:none;stroke-width:0.03527778"
       d="m 126.78595,229.63567 h -4.5339 c -0.901,0 -1.6316,-0.7306 -1.6316,-1.6316 v -4.53355 c 0,-0.90134 0.7306,-1.63159 1.6316,-1.63159 h 4.5339 c 0.90134,0 1.63159,0.73025 1.63159,1.63159 v 4.53355 c 0,0.901 -0.73025,1.6316 -1.63159,1.6316" />
    <path
       inkscape:connector-curvature="0"
       id="path3841"
       style="fill:#1d2033;fill-opacity:1;fill-rule:nonzero;stroke:none;stroke-width:0.03527778"
       d="m 95.919299,275.80437 c 0,0 0.235303,1.58048 0.392995,2.25432 0.157691,0.67412 1.615016,2.60699 1.589264,2.93621 -0.02575,0.32864 -0.642409,0.71599 -0.9525,0.45116 -0.310092,-0.26458 -2.369609,-2.38058 -2.809523,-3.2869 -0.440266,-0.90621 -1.896533,-2.08802 -2.045405,-2.49054 -0.148873,-0.40252 1.717675,-1.57977 2.198158,-1.76745 0.480836,-0.188 1.627011,1.9032 1.627011,1.9032" />
    <path
       inkscape:connector-curvature="0"
       id="path3843"
       style="fill:#eea886;fill-opacity:1;fill-rule:nonzero;stroke:none;stroke-width:0.03527778"
       d="m 92.269813,247.68696 c 0,0 0.192617,1.00788 0.334433,1.19415 0.141817,0.18627 0.524934,1.12324 0.563386,1.25518 0.03881,0.13159 0.274461,1.07809 0.314325,1.19768 0.03986,0.11995 -0.229305,0.30657 -0.413455,0.0536 -0.114653,-0.15698 -0.315384,-0.7694 -0.396875,-0.96731 -0.08185,-0.19756 -0.33267,-0.82303 -0.400403,-0.70909 -0.06773,0.1143 -0.05151,0.95286 -0.06279,1.16876 -0.01094,0.21554 0.125941,0.87912 0.190147,1.15358 0.06421,0.27481 0.429683,1.42593 0.282928,1.48802 -0.146403,0.0621 -0.270228,0.0452 -0.459317,-0.26388 0,0 -0.299508,0.16757 -0.474134,-0.21167 0,0 -0.268111,0.0974 -0.433916,-0.39687 0,0 -0.1905,-0.10442 -0.264584,-0.28152 -0.07373,-0.17709 -0.508,-1.69157 -0.504119,-2.30963 0.0039,-0.61737 0.148872,-1.04811 0.122414,-1.48379 -0.02646,-0.43638 -0.249767,-1.36878 -0.249767,-1.36878 l 1.851731,0.48155" />
    <path
       inkscape:connector-curvature="0"
       id="path3845"
       style="fill:#50558a;fill-opacity:1;fill-rule:nonzero;stroke:none;stroke-width:0.03527778"
       d="m 94.853205,273.65352 -0.560917,0.24765 1.627011,1.9032 0.539045,-0.59655 -1.605139,-1.5543" />
    <path
       inkscape:connector-curvature="0"
       id="path3847"
       style="fill:#1d2033;fill-opacity:1;fill-rule:nonzero;stroke:none;stroke-width:0.03527778"
       d="m 100.53928,277.64171 c 0,0 -0.36195,0.87312 -0.667458,1.21888 -0.305153,0.34629 -1.474259,0.96474 -1.480609,1.99235 -0.0067,1.11456 1.970967,0.80504 2.744257,0.76454 0.77329,-0.0414 0.83185,-0.63638 1.15747,-1.26725 0.32596,-0.63073 0.65405,-0.52381 0.71508,-1.03325 0.061,-0.50835 -0.24942,-1.64786 -0.24942,-1.64786 l -2.21932,-0.0274" />
    <path
       inkscape:connector-curvature="0"
       id="path3849"
       style="fill:#50558a;fill-opacity:1;fill-rule:nonzero;stroke:none;stroke-width:0.03527778"
       d="m 100.50576,277.31923 -0.0564,0.52875 c 0,0 1.21638,0.43712 2.36643,0.0456 l -0.0642,-0.72249 -2.24579,0.14813" />
    <path
       inkscape:connector-curvature="0"
       id="path3851"
       style="fill:#292c47;fill-opacity:1;fill-rule:nonzero;stroke:none;stroke-width:0.03527778"
       d="m 101.17992,262.89835 c -0.0342,-1.84429 -0.85478,-12.18103 -0.768,-12.18103 0.40394,0 2.67829,9.84356 2.76261,11.22891 0.0176,0.28364 -0.33726,0.91836 -0.91052,1.75373 -0.25788,0.37606 -0.56021,0.79224 -0.89253,1.23568 l -7.1e-4,4.2e-4 c -0.11288,-1.01314 -0.18591,-1.75824 -0.19085,-2.03771 z m 6.07237,0.99247 c 0,-1.37379 -1.00295,-13.36083 -0.95744,-13.81873 0.0303,-0.29881 -0.28858,-3.16865 -0.51435,-5.12904 -0.002,-0.0169 -0.004,-0.0339 -0.006,-0.0501 0,-0.004 -0.001,-0.008 -0.001,-0.012 -0.0638,-0.55069 -0.11924,-1.02552 -0.15663,-1.34408 -0.0173,-0.14746 -0.0307,-0.26176 -0.0392,-0.33408 -0.007,-0.06 -0.0109,-0.0917 -0.0109,-0.0917 0,0 -6.469588,-1.27564 -9.8238,-0.0706 -0.140052,0.0508 -0.274461,0.10513 -0.402872,0.16439 0,0 -0.0081,0.0571 -0.02293,0.1644 -0.03351,0.248 -0.103716,0.76517 -0.19685,1.46791 -0.01587,0.11853 -0.03245,0.242 -0.04974,0.37077 -0.477309,3.6142 -0.170745,7.54203 0.664986,11.56299 0.819856,3.94441 1.271058,6.89438 1.355372,7.46722 0.111478,0.75187 0.440267,2.81975 0.804334,5.08772 -1.78047,2.19604 -3.298473,4.06344 -3.185231,4.24893 0.281164,0.459 2.779183,3.0456 2.916767,2.58766 0,0 0.451203,-0.51082 1.157816,-1.3251 0.22472,1.38754 0.378531,2.33397 0.378531,2.33397 0,0 2.738257,0.65416 3.746147,0.0586 0,0 -0.39617,-3.0088 -0.80927,-6.28039 2.51389,-3.00966 5.15232,-6.33914 5.15232,-7.05873" />
    <path
       inkscape:connector-curvature="0"
       id="path3853"
       style="fill:#d9c7c1;fill-opacity:1;fill-rule:nonzero;stroke:none;stroke-width:0.03527778"
       d="m 108.33249,225.96537 -1.73955,6.24134 c -0.0596,0.20214 -0.13088,0.45121 -0.20672,0.74119 l -0.003,0.0109 c -10e-4,0.002 -0.002,0.005 -0.002,0.007 -0.29034,1.11266 -0.64947,2.80847 -0.75636,4.69265 -0.0727,1.28447 0.16545,6.44843 0.16545,6.44843 0,0 -2.63278,0.98213 -6.571893,0.73342 0,0 -4.236861,-0.0991 -3.891492,-2.69698 0.9144,-6.87564 0.02011,-9.71056 -0.09948,-10.40095 0,0 -0.575028,-3.33975 -0.98672,-6.13798 1.192037,-0.4438 6.285435,-2.15618 6.285435,-2.15618 l 2.63843,0.19756 c 0,0 4.00967,0.98707 5.16784,2.31916" />
    <path
       inkscape:connector-curvature="0"
       id="path3855"
       style="fill:#eea987;fill-opacity:1;fill-rule:nonzero;stroke:none;stroke-width:0.03527778"
       d="m 101.84949,214.62533 c 0,0 2.57563,0.43462 2.13854,4.46616 -0.43674,4.03225 -2.70968,3.6763 -2.86208,3.67066 -0.15205,-0.006 -2.286356,0.0487 -2.398892,-4.88104 0,0 -0.03281,-3.64455 3.122432,-3.25578" />
    <path
       inkscape:connector-curvature="0"
       id="path3857"
       style="fill:#eea987;fill-opacity:1;fill-rule:nonzero;stroke:none;stroke-width:0.03527778"
       d="m 102.97803,221.59339 c 0,0 -0.0889,1.65947 0.0677,2.02071 0.15699,0.3609 -2.06763,1.50354 -3.450163,0.20215 0,0 0.279752,-1.81399 0.192969,-2.45463 -0.08714,-0.64029 3.189464,0.23177 3.189464,0.23177" />
    <path
       inkscape:connector-curvature="0"
       id="path3859"
       style="fill:#eea987;fill-opacity:1;fill-rule:nonzero;stroke:none;stroke-width:0.03527778"
       d="m 104.0406,217.95202 c 0,0 0.28575,-0.29845 0.38594,0.008 0.10018,0.30692 -0.4565,1.66582 -0.42157,1.7272 0,0 -0.0529,0.11818 -0.1203,0.0522 -0.067,-0.066 0.15593,-1.78717 0.15593,-1.78717" />
    <path
       inkscape:connector-curvature="0"
       id="path3861"
       style="fill:#eea987;fill-opacity:1;fill-rule:nonzero;stroke:none;stroke-width:0.03527778"
       d="m 98.756691,217.84336 c 0,0 -0.273403,-0.31009 -0.386292,-0.008 -0.112889,0.30198 0.299156,1.65912 0.350309,1.74273 0,0 0.0889,0.13934 0.158397,0.0762 0.06985,-0.0632 -0.122414,-1.81117 -0.122414,-1.81117" />
    <path
       inkscape:connector-curvature="0"
       id="path3863"
       style="fill:#e8734d;fill-opacity:1;fill-rule:nonzero;stroke:none;stroke-width:0.03527778"
       d="m 104.20534,217.60947 c -0.0889,0.55175 -0.17286,0.96168 -0.17286,0.96168 l -0.37465,0.48965 c 0,0 0.0222,-1.08232 -0.0353,-1.25236 -0.0215,-0.0646 -0.0473,-0.17886 -0.0734,-0.30233 -0.043,-0.20391 -0.0868,-0.43427 -0.11712,-0.51082 -0.0483,-0.12242 -2.20734,-0.75318 -4.130327,0.13229 0,0 0.01658,0.16651 0.01517,0.35242 -7.05e-4,0.2159 -0.02434,0.45791 -0.123472,0.49425 -0.18415,0.0674 -0.107244,1.26682 -0.107244,1.26682 L 98.786324,218.895 c 0,0 -0.08678,-0.62654 -0.172155,-1.34656 0,0 -3.53e-4,-0.001 -3.53e-4,-0.005 -0.0194,-0.16792 -0.03916,-0.34078 -0.05821,-0.51188 -0.04269,-0.7246 0.02893,-2.03941 0.971903,-2.81199 0.636411,-0.2727 1.652411,-0.50412 3.346101,0.0145 0,0 0.38841,0.0261 0.49741,0.13088 1.05481,1.16099 0.83432,3.24449 0.83432,3.24449" />
    <path
       inkscape:connector-curvature="0"
       id="path3865"
       style="fill:#c78d71;fill-opacity:1;fill-rule:nonzero;stroke:none;stroke-width:0.03527778"
       d="m 99.965308,222.2231 c 0,0 0.410982,0.57115 1.365952,0.54928 0.95497,-0.0215 1.36913,-0.51929 1.36913,-0.51929 0,0 -0.4519,0.94544 -1.37371,0.93556 -0.92216,-0.0102 -1.361372,-0.96555 -1.361372,-0.96555" />
    <path
       inkscape:connector-curvature="0"
       id="path3867"
       style="fill:#eea987;fill-opacity:1;fill-rule:nonzero;stroke:none;stroke-width:0.03527778"
       d="m 99.33313,223.85117 c 0,0 0.69039,1.20156 1.9999,1.31445 0.83044,0.072 1.54975,-0.98072 1.88665,-1.49789 0,0 -1.85984,-0.79622 -3.88655,0.18344" />
    <path
       inkscape:connector-curvature="0"
       id="path3869"
       style="fill:#eddad3;fill-opacity:1;fill-rule:nonzero;stroke:none;stroke-width:0.03527778"
       d="m 102.98085,223.28778 c 0,0 -0.52634,0.69004 -1.64782,1.42805 l 0.69744,1.07456 1.18921,-2.12266 -0.23883,-0.37995" />
    <path
       inkscape:connector-curvature="0"
       id="path3871"
       style="fill:#eddad3;fill-opacity:1;fill-rule:nonzero;stroke:none;stroke-width:0.03527778"
       d="m 99.648161,223.44865 c 0,0 0.669929,0.83997 1.684869,1.26718 l -0.76553,1.10666 -1.338439,-1.93639 0.4191,-0.43745" />
    <path
       inkscape:connector-curvature="0"
       id="path3873"
       style="fill:#5073ab;fill-opacity:1;fill-rule:nonzero;stroke:none;stroke-width:0.03527778"
       d="m 101.33303,224.71583 0.5976,0.90946 c 0,0 -0.62759,0.35489 -1.21108,-0.0229 l 0.61348,-0.88653" />
    <path
       inkscape:connector-curvature="0"
       id="path3875"
       style="fill:#1d2033;fill-opacity:1;fill-rule:nonzero;stroke:none;stroke-width:0.03527778"
       d="m 95.182699,245.30853 c 0,0 3.231445,1.19203 10.538881,0.0688 l -0.097,-1.32292 c 0,0 -4.2358,1.24989 -10.312754,0.17957 l -0.129117,1.07456" />
    <path
       inkscape:connector-curvature="0"
       id="path3877"
       style="fill:#323657;fill-opacity:1;fill-rule:nonzero;stroke:none;stroke-width:0.03527778"
       d="m 103.21968,223.66773 c 0,0 -0.75529,5.64444 -0.65193,10.51277 0.10336,4.86869 3.78072,13.70966 3.78072,13.70966 0,0 1.60725,-1.55434 2.30681,-2.43452 0,0 -2.50225,-7.22031 -2.45639,-8.52276 0.0459,-1.30246 2.82399,-11.13685 2.82399,-11.13685 0,0 -1.54376,-1.00682 -5.8032,-2.1283" />
    <path
       inkscape:connector-curvature="0"
       id="path3879"
       style="fill:#323657;fill-opacity:1;fill-rule:nonzero;stroke:none;stroke-width:0.03527778"
       d="m 99.163091,223.9062 c 0,0 0.006,5.40597 -0.09772,10.2743 -0.103364,4.86869 -0.744714,13.93191 -0.744714,13.93191 0,0 -3.599039,-0.56974 -4.298598,-1.44992 0,0 1.458031,-8.42716 1.41217,-9.72961 -0.04586,-1.30246 -2.344209,-10.88355 -2.344209,-10.88355 0,0 1.337734,-0.87983 6.07307,-2.14313" />
    <path
       inkscape:connector-curvature="0"
       id="path3881"
       style="fill:#3a4066;fill-opacity:1;fill-rule:nonzero;stroke:none;stroke-width:0.03527778"
       d="m 101.57503,245.93824 h -1.985078 v -1.47638 h 1.985078 v 1.47638" />
    <path
       inkscape:connector-curvature="0"
       id="path3883"
       style="fill:#5073ab;fill-opacity:1;fill-rule:nonzero;stroke:none;stroke-width:0.03527778"
       d="m 101.05257,225.39528 c 0,0 -0.88724,3.02648 -0.9645,9.03781 -0.0773,6.01098 0.10901,7.73466 0.10901,7.73466 l 0.69215,1.36948 0.92252,-1.4291 c 0,0 -0.29563,-13.83207 -0.12453,-16.60772 l -0.63465,-0.10513" />
    <path
       inkscape:connector-curvature="0"
       id="path3885"
       style="fill:#eea886;fill-opacity:1;fill-rule:nonzero;stroke:none;stroke-width:0.03527778"
       d="m 106.14809,247.94131 c 0,0 0.21696,-0.14464 0.27658,-0.2473 0,0 0.0917,-0.19473 0.16651,-0.32985 0.024,-0.0423 0.0462,-0.0794 0.0632,-0.1016 0.0709,-0.0942 0.25929,-0.28222 0.35736,-0.54927 0.0981,-0.26635 0.17992,-1.50813 0.17992,-1.50813 l -0.7613,-0.22366 -0.67768,-0.29809 c 0,0 -1.48343,1.13735 -1.60796,1.37724 -0.012,0.0233 -0.0229,0.0466 -0.0311,0.0699 -0.0829,0.21131 -0.042,0.39829 -0.0709,0.51329 -0.0102,0.042 -0.0801,0.46884 0.0198,0.56339 0.13864,0.13123 0.29669,0.17321 0.43603,0.15275 0,0 0.28434,0.24659 0.55457,0.26882 0,0 0.254,0.23495 0.60043,0.17956 0,0 0.28822,0.21273 0.49459,0.133" />
    <path
       inkscape:connector-curvature="0"
       id="path3887"
       style="fill:#323657;fill-opacity:1;fill-rule:nonzero;stroke:none;stroke-width:0.03527778"
       d="m 105.17689,244.54653 c 0,0 1.02941,0.90734 2.47192,1.39171 0,0 4.78225,-7.79287 4.84258,-8.35484 0.0561,-0.52035 -2.37243,-11.11673 -3.46851,-11.78737 l -1.99002,5.82789 c 0.13194,-0.0388 2.26518,4.42701 2.2733,5.00134 0.0116,0.76976 -4.12927,7.92127 -4.12927,7.92127" />
    <path
       inkscape:connector-curvature="0"
       id="path3889"
       style="fill:#323657;fill-opacity:1;fill-rule:nonzero;stroke:none;stroke-width:0.03527778"
       d="m 92.832846,248.74106 c 0,0 -1.074561,0.20002 -2.629253,0.11218 0,0 0.60572,-10.00266 0.545395,-10.56534 -0.05609,-0.52 1.245305,-11.56794 2.341033,-12.23857 l 1.954389,5.88857 c -0.131939,-0.0385 -1.310216,6.02403 -1.31833,6.59835 -0.01164,0.76976 -0.893234,10.20481 -0.893234,10.20481" />
    <path
       inkscape:connector-curvature="0"
       id="path3891"
       style="fill:#292c47;fill-opacity:1;fill-rule:nonzero;stroke:none;stroke-width:0.03527778"
       d="m 103.92524,245.65354 3.07269,1.59385 -1.20791,2.23626 -2.61514,-2.79647 0.75036,-1.03364" />
    <path
       inkscape:connector-curvature="0"
       id="path3893"
       style="fill:#1d2033;fill-opacity:1;fill-rule:nonzero;stroke:none;stroke-width:0.03527778"
       d="m 102.26401,263.69996 -0.31045,6.08112 -0.58208,-4.84502 v -4.2e-4 c 0.33232,-0.44344 0.63465,-0.85962 0.89253,-1.23568" />
    <path
       inkscape:connector-curvature="0"
       id="path3895"
       style="fill:#78c2ff;fill-opacity:1;fill-rule:nonzero;stroke:none;stroke-width:0.03527778"
       d="m 88.591046,189.7806 h -1.793522 v 5.88116 h 1.793522 v -5.88116" />
    <path
       inkscape:connector-curvature="0"
       id="path3897"
       style="fill:#eef0f7;fill-opacity:1;fill-rule:nonzero;stroke:none;stroke-width:0.03527778"
       d="m 152.85517,228.95869 c 0,4.57376 -3.70593,8.31285 -8.31286,8.31285 -4.59987,0 -8.31356,-3.73027 -8.31356,-8.31285 0,-4.59141 3.72216,-8.31356 8.31356,-8.31356 4.59105,0 8.31286,3.72215 8.31286,8.31356" />
    <path
       inkscape:connector-curvature="0"
       id="path3899"
       style="fill:#78c2ff;fill-opacity:1;fill-rule:nonzero;stroke:none;stroke-width:0.03527778"
       d="m 85.651349,191.43019 h -1.793523 v 4.23157 h 1.793523 v -4.23157" />
    <path
       inkscape:connector-curvature="0"
       id="path3901"
       style="fill:#78c2ff;fill-opacity:1;fill-rule:nonzero;stroke:none;stroke-width:0.03527778"
       d="m 91.530743,187.05504 h -1.793522 v 8.60672 h 1.793522 v -8.60672" />
    <path
       inkscape:connector-curvature="0"
       id="path3903"
       style="fill:#e2d2ca;fill-opacity:1;fill-rule:nonzero;stroke:none;stroke-width:0.03527778"
       d="m 164.46261,252.78354 h 11.53619 v 0.68509 h -11.53619 v -0.68509" />
    <path
       inkscape:connector-curvature="0"
       id="path3905"
       style="fill:#706865;fill-opacity:1;fill-rule:nonzero;stroke:none;stroke-width:0.03527778"
       d="m 174.45258,286.39402 h -1.01071 v -31.14351 h 1.01071 v 31.14351" />
    <path
       inkscape:connector-curvature="0"
       id="path3907"
       style="fill:#ccbdb7;fill-opacity:1;fill-rule:nonzero;stroke:none;stroke-width:0.03527778"
       d="m 158.24914,252.58951 h 8.01899 v 0.97825 h -8.01899 v -0.97825" />
    <path
       inkscape:connector-curvature="0"
       id="path3909"
       style="fill:#4667a8;fill-opacity:1;fill-rule:nonzero;stroke:none;stroke-width:0.03527778"
       d="m 160.74046,253.46863 h 3.03635 v -9.22337 h -3.03635 v 9.22337" />
    <path
       inkscape:connector-curvature="0"
       id="path3911"
       style="fill:#b59074;fill-opacity:1;fill-rule:nonzero;stroke:none;stroke-width:0.03527778"
       d="m 135.7084,255.25051 h 44.42849 v -1.77059 H 135.7084 v 1.77059" />
    <path
       inkscape:connector-curvature="0"
       id="path3913"
       style="fill:#ffc05c;fill-opacity:1;fill-rule:nonzero;stroke:none;stroke-width:0.03527778"
       d="m 188.66388,242.76182 c 0,0 0.48577,6.81461 -0.84561,7.63024 -0.83397,0.51082 -4.1596,2.23378 -4.06118,2.55693 0.0984,0.32314 1.87784,2.87514 1.87784,2.87514 0,0 6.3881,-4.20617 6.59412,-5.53191 0.20108,-1.29505 -0.31468,-9.97761 -1.19239,-10.37766 -0.65758,-0.29987 -1.00506,-0.0519 -1.83339,0.56338 -1.16346,0.86395 -0.53939,2.28388 -0.53939,2.28388" />
    <path
       inkscape:connector-curvature="0"
       id="path3915"
       style="fill:#424773;fill-opacity:1;fill-rule:nonzero;stroke:none;stroke-width:0.03527778"
       d="m 180.80434,282.14209 c 0,0 0.19826,1.37859 0.22366,1.5857 0.0247,0.20712 2.20945,-0.12209 2.20945,-0.12209 l 0.17674,-1.64151 c 0,0 -2.3368,-0.0168 -2.60985,0.1779" />
    <path
       inkscape:connector-curvature="0"
       id="path3917"
       style="fill:#292c47;fill-opacity:1;fill-rule:nonzero;stroke:none;stroke-width:0.03527778"
       d="m 181.00472,283.55253 c 0,0 -0.6925,0.83108 -1.36208,1.1931 -0.66922,0.36188 -1.72155,0.50546 -2.11772,0.88043 -0.28575,0.27065 -1.0407,1.4351 1.74025,1.41178 2.7806,-0.0236 4.12115,0.16443 4.41925,-0.28222 0.2981,-0.4462 -0.4311,-3.29668 -0.4311,-3.29668 0,0 -0.65863,0.23717 -2.2486,0.0936" />
    <path
       inkscape:connector-curvature="0"
       id="path3919"
       style="fill:#424773;fill-opacity:1;fill-rule:nonzero;stroke:none;stroke-width:0.03527778"
       d="m 166.80576,282.15504 c 0,0 0.19862,1.37873 0.22331,1.58545 0.0247,0.2074 2.2098,-0.1217 2.2098,-0.1217 l 0.1771,-1.64151 c 0,0 -2.3368,-0.0169 -2.61021,0.17776" />
    <path
       inkscape:connector-curvature="0"
       id="path3921"
       style="fill:#292c47;fill-opacity:1;fill-rule:nonzero;stroke:none;stroke-width:0.03527778"
       d="m 167.00614,283.56548 c 0,0 -0.6925,0.83122 -1.36243,1.1931 -0.66921,0.36202 -3.13301,0.65965 -3.52918,1.03476 -0.2854,0.26984 -0.76095,1.35957 3.15171,1.25762 2.77989,-0.0723 4.12186,0.1644 4.41925,-0.28222 0.29845,-0.44623 -0.43074,-3.29643 -0.43074,-3.29643 0,0 -0.62054,0.25301 -2.24861,0.0932" />
    <path
       inkscape:connector-curvature="0"
       id="path3923"
       style="fill:#292c47;fill-opacity:1;fill-rule:nonzero;stroke:none;stroke-width:0.03527778"
       d="m 187.85178,258.32462 c 0,0 -7.94385,1.34408 -9.73772,1.6256 -1.79423,0.28187 -11.52243,2.7027 -12.73881,3.44022 -0.96837,0.58705 0.50765,14.68864 0.85266,20.0685 h 3.83152 l 0.27799,-16.13849 c 4.59811,0.11536 7.8793,-1.07527 11.22751,-0.56691 3.34821,0.50835 6.13974,1.23116 8.26735,-1.62278 0,0 0.0787,-6.18314 -1.9805,-6.80614" />
    <path
       inkscape:connector-curvature="0"
       id="path3925"
       style="fill:#292c47;fill-opacity:1;fill-rule:nonzero;stroke:none;stroke-width:0.03527778"
       d="m 180.02188,283.47231 3.73415,-0.23135 0.36372,-15.92051 c 1.97979,0.0498 2.65818,-0.0759 4.26049,-0.26994 l 3.01414,-7.00822 c -2.64196,0.52846 -11.10756,2.66355 -12.23645,3.34815 -0.96838,0.58744 0.51929,14.70173 0.86395,20.08187" />
    <path
       inkscape:connector-curvature="0"
       id="path3927"
       style="fill:#eea886;fill-opacity:1;fill-rule:nonzero;stroke:none;stroke-width:0.03527778"
       d="m 184.19489,228.54876 c 0,0 -2.91183,-0.80469 -4.02308,1.45591 -1.11054,2.2606 -0.60713,6.54615 0.86043,6.94902 1.4679,0.40358 3.57787,-0.061 4.18747,-1.46791 0.60889,-1.40688 1.09502,-3.40607 0.94932,-4.70076 -0.14569,-1.2947 -1.2005,-1.92687 -1.97414,-2.23626" />
    <path
       inkscape:connector-curvature="0"
       id="path3929"
       style="fill:#eea886;fill-opacity:1;fill-rule:nonzero;stroke:none;stroke-width:0.03527778"
       d="m 181.79318,236.50284 c 0,0 0.0321,1.71909 -0.15769,2.08562 -0.18945,0.36654 4.05518,0.27411 4.05518,0.27411 0,0 -0.66887,-2.0641 -0.28963,-3.82305 0.3757,-1.74061 -3.60786,1.46332 -3.60786,1.46332" />
    <path
       inkscape:connector-curvature="0"
       id="path3931"
       style="fill:#3a3f47;fill-opacity:1;fill-rule:nonzero;stroke:none;stroke-width:0.03527778"
       d="m 185.62964,234.389 c 0,0 -0.22684,0.46072 -1.32539,0.38629 -1.09855,-0.0744 -2.54776,-1.39947 -3.01378,-1.518 -0.46673,-0.11819 -0.49424,-0.38383 -0.49424,-0.38383 l -0.24695,0.43851 -0.47766,0.073 c 0,0 0.32456,-1.32856 -0.38312,-1.79634 -0.70767,-0.46779 0.31856,-4.23475 3.90102,-3.32599 0,0 2.73403,0.50024 2.77072,2.02741 0.0367,1.52647 -0.19967,3.29001 -0.7306,4.09893" />
    <path
       inkscape:connector-curvature="0"
       id="path3933"
       style="fill:#e2d2ca;fill-opacity:1;fill-rule:nonzero;stroke:none;stroke-width:0.03527778"
       d="m 181.41253,238.54437 c 0,0 0.012,-0.70027 0.32914,-0.76765 0.31785,-0.067 3.33657,-0.48225 3.72604,-0.32914 l 0.16722,0.92463 c 0,0 -0.75071,0.46214 -4.2224,0.17216" />
    <path
       inkscape:connector-curvature="0"
       id="path3935"
       style="fill:#eea886;fill-opacity:1;fill-rule:nonzero;stroke:none;stroke-width:0.03527778"
       d="m 180.53905,232.5602 c 0.0811,-0.57397 0.73378,-1.23296 1.10772,-0.33902 0.3736,0.89358 -0.25223,2.19604 -0.67168,2.12619 -0.4191,-0.0702 -0.54646,-1.00859 -0.43604,-1.78717" />
    <path
       inkscape:connector-curvature="0"
       id="path3937"
       style="fill:#323657;fill-opacity:1;fill-rule:nonzero;stroke:none;stroke-width:0.03527778"
       d="m 168.76756,246.81806 c 0.001,-7e-4 0.004,-0.001 0.005,-7e-4 -0.0215,0.01 -0.0247,0.0102 -0.005,7e-4" />
    <path
       inkscape:connector-curvature="0"
       id="path3939"
       style="fill:#3a3f47;fill-opacity:1;fill-rule:nonzero;stroke:none;stroke-width:0.03527778"
       d="m 185.04438,228.95869 c 0,0 3.55035,-0.16687 0.61947,5.37527 l -0.61947,-5.37527" />
    <path
       inkscape:connector-curvature="0"
       id="path3941"
       style="fill:#918783;fill-opacity:1;fill-rule:nonzero;stroke:none;stroke-width:0.03527778"
       d="m 192.95507,285.36052 -0.26423,0.74288 -11.15978,-3.45722 0.53517,-1.50495 10.88884,4.21929" />
    <path
       inkscape:connector-curvature="0"
       id="path3943"
       style="fill:#918783;fill-opacity:1;fill-rule:nonzero;stroke:none;stroke-width:0.03527778"
       d="m 181.14865,282.11659 h 1.26824 v -12.13305 h -1.26824 v 12.13305" />
    <path
       inkscape:connector-curvature="0"
       id="path3945"
       style="fill:#5e5854;fill-opacity:1;fill-rule:nonzero;stroke:none;stroke-width:0.03527778"
       d="m 178.04209,270.05381 h 7.48136 v -0.71508 h -7.48136 v 0.71508" />
    <path
       inkscape:connector-curvature="0"
       id="path3947"
       style="fill:#918783;fill-opacity:1;fill-rule:nonzero;stroke:none;stroke-width:0.03527778"
       d="m 170.51205,285.36052 0.26423,0.74288 11.15977,-3.45722 -0.49036,-1.59921 -10.93364,4.31355" />
    <path
       inkscape:connector-curvature="0"
       id="path3949"
       style="fill:#918783;fill-opacity:1;fill-rule:nonzero;stroke:none;stroke-width:0.03527778"
       d="m 178.37511,286.02445 v 0.86388 l 3.56094,-4.24215 -0.49036,-1.59921 -3.07058,4.97748" />
    <path
       inkscape:connector-curvature="0"
       id="path3951"
       style="fill:#bfb2ac;fill-opacity:1;fill-rule:nonzero;stroke:none;stroke-width:0.03527778"
       d="m 169.46924,286.39402 c 0,0.57615 0.46707,1.04292 1.04281,1.04292 0.57608,0 1.04316,-0.46677 1.04316,-1.04292 0,-0.57574 -0.46708,-1.04274 -1.04316,-1.04274 -0.57574,0 -1.04281,0.467 -1.04281,1.04274" />
    <path
       inkscape:connector-curvature="0"
       id="path3953"
       style="fill:#bfb2ac;fill-opacity:1;fill-rule:nonzero;stroke:none;stroke-width:0.03527778"
       d="m 178.28621,286.39402 c 0,0.57615 0.46708,1.04292 1.04317,1.04292 0.57608,0 1.04281,-0.46677 1.04281,-1.04292 0,-0.57574 -0.46673,-1.04274 -1.04281,-1.04274 -0.57609,0 -1.04317,0.467 -1.04317,1.04274" />
    <path
       inkscape:connector-curvature="0"
       id="path3955"
       style="fill:#bfb2ac;fill-opacity:1;fill-rule:nonzero;stroke:none;stroke-width:0.03527778"
       d="m 191.9119,286.39402 c 0,0.57615 0.46708,1.04292 1.04317,1.04292 0.57608,0 1.04281,-0.46677 1.04281,-1.04292 0,-0.57574 -0.46673,-1.04274 -1.04281,-1.04274 -0.57609,0 -1.04317,0.467 -1.04317,1.04274" />
    <path
       inkscape:connector-curvature="0"
       id="path3957"
       style="fill:#e2d2ca;fill-opacity:1;fill-rule:nonzero;stroke:none;stroke-width:0.03527778"
       d="m 174.20881,269.33873 h 15.04985 c 0.73836,0 1.33668,-0.59835 1.33668,-1.33668 v -0.0343 c 0,-0.73794 -0.59832,-1.33696 -1.33668,-1.33696 h -15.04985 c -0.73837,0 -1.33668,0.59902 -1.33668,1.33696 v 0.0343 c 0,0.73833 0.59831,1.33668 1.33668,1.33668" />
    <path
       inkscape:connector-curvature="0"
       id="path3959"
       style="fill:#706865;fill-opacity:1;fill-rule:nonzero;stroke:none;stroke-width:0.03527778"
       d="m 141.39271,286.39402 h 1.01036 v -31.14351 h -1.01036 v 31.14351" />
    <path
       inkscape:connector-curvature="0"
       id="path3961"
       style="fill:#5f8be3;fill-opacity:1;fill-rule:nonzero;stroke:none;stroke-width:0.03527778"
       d="m 150.48238,248.68849 h 23.55251 c 0.7366,0 1.33385,-0.5969 1.33385,-1.3335 v -15.82984 c 0,-0.7366 -0.59725,-1.33386 -1.33385,-1.33386 h -23.55251 c -0.73695,0 -1.33385,0.59726 -1.33385,1.33386 v 15.82984 c 0,0.7366 0.5969,1.3335 1.33385,1.3335" />
    <path
       inkscape:connector-curvature="0"
       id="path3963"
       style="fill:#f5f7ff;fill-opacity:1;fill-rule:nonzero;stroke:none;stroke-width:0.03527778"
       d="m 150.17547,245.78972 h 24.16669 v -14.59865 h -24.16669 v 14.59865" />
    <path
       inkscape:connector-curvature="0"
       id="path3965"
       style="fill:#cecfd6;fill-opacity:1;fill-rule:nonzero;stroke:none;stroke-width:0.03527778"
       d="m 150.17547,232.35276 h 24.16669 v -1.16169 h -24.16669 v 1.16169" />
    <path
       inkscape:connector-curvature="0"
       id="path3967"
       style="fill:#cecfd6;fill-opacity:1;fill-rule:nonzero;stroke:none;stroke-width:0.03527778"
       d="m 151.8942,244.89049 h 1.26294 c 0.45615,0 0.8255,-0.36936 0.8255,-0.82515 v -10.01289 c 0,-0.45579 -0.36935,-0.8255 -0.8255,-0.8255 h -1.26294 c -0.45579,0 -0.82515,0.36971 -0.82515,0.8255 v 10.01289 c 0,0.45579 0.36936,0.82515 0.82515,0.82515" />
    <path
       inkscape:connector-curvature="0"
       id="path3969"
       style="fill:#cecfd6;fill-opacity:1;fill-rule:nonzero;stroke:none;stroke-width:0.03527778"
       d="m 168.78908,234.30715 h 4.42348 c 0.24659,0 0.44591,-0.19932 0.44591,-0.4452 v -0.18945 c 0,-0.24623 -0.19932,-0.44555 -0.44591,-0.44555 h -4.42348 c -0.24624,0 -0.44556,0.19932 -0.44556,0.44555 v 0.18945 c 0,0.24588 0.19932,0.4452 0.44556,0.4452" />
    <path
       inkscape:connector-curvature="0"
       id="path3971"
       style="fill:#cecfd6;fill-opacity:1;fill-rule:nonzero;stroke:none;stroke-width:0.03527778"
       d="m 169.26392,245.18858 h 3.4738 c 0.50836,0 0.92075,-0.41204 0.92075,-0.92039 v -8.31604 c 0,-0.50835 -0.41239,-0.92039 -0.92075,-0.92039 h -3.4738 c -0.50835,0 -0.9204,0.41204 -0.9204,0.92039 v 8.31604 c 0,0.50835 0.41205,0.92039 0.9204,0.92039" />
    <path
       inkscape:connector-curvature="0"
       id="path3973"
       style="fill:#5c5552;fill-opacity:1;fill-rule:nonzero;stroke:none;stroke-width:0.03527778"
       d="m 161.41285,247.15285 c 0,0.46743 0.37853,0.84596 0.84596,0.84596 0.46708,0 0.84561,-0.37853 0.84561,-0.84596 0,-0.46708 -0.37853,-0.84561 -0.84561,-0.84561 -0.46743,0 -0.84596,0.37853 -0.84596,0.84561" />
    <path
       inkscape:connector-curvature="0"
       id="path3975"
       style="fill:#2e436e;fill-opacity:1;fill-rule:nonzero;stroke:none;stroke-width:0.03527778"
       d="m 156.83062,253.50356 v -0.32879 c 0,0 0.46249,-2.04753 3.73592,-2.04753 3.27307,0 3.2071,2.37632 3.2071,2.37632 h -6.94302" />
    <path
       inkscape:connector-curvature="0"
       id="path3977"
       style="fill:#eea886;fill-opacity:1;fill-rule:nonzero;stroke:none;stroke-width:0.03527778"
       d="m 163.8135,251.43134 c 0,0 -0.71155,-0.0554 -0.9719,-0.21237 -0.26035,-0.15734 -1.81927,-1.20544 -2.18511,-1.03788 -0.36618,0.16793 -2.80281,0.9144 -2.71815,1.27071 0.0847,0.35631 0.30974,0.32173 0.4819,0.25859 0.1718,-0.0628 1.94133,-0.43427 2.09726,-0.37148 0,0 -1.73778,0.63359 -1.74449,1.09643 -0.007,0.46285 0.36337,0.57503 0.52811,0.75001 0.16475,0.17498 0.36266,0.6096 0.81069,0.64241 0.44767,0.0335 2.63313,-0.72637 3.08257,-0.7613 0.44979,-0.0349 1.2827,0.0279 1.33914,-0.0455 0.0568,-0.0734 -0.72002,-1.58962 -0.72002,-1.58962" />
    <path
       inkscape:connector-curvature="0"
       id="path3979"
       style="fill:#ffc05c;fill-opacity:1;fill-rule:nonzero;stroke:none;stroke-width:0.03527778"
       d="m 176.75868,239.51486 c 2.26731,-0.39864 4.65385,-0.97049 4.65385,-0.97049 l 4.2224,-0.17216 c 0,0 3.87561,0.85302 5.40173,1.54235 0.14464,0.0653 0.14535,3.45757 0.54257,4.34657 l -1.26506,2.66947 c 0,0 -0.73131,5.28814 -0.883,7.63976 -0.0695,1.0795 0.1972,10.43403 0.1972,10.43403 0,0 -0.37959,0.18701 -3.26108,0.50494 -2.88184,0.3175 -10.08239,-0.11508 -10.12789,-0.45477 -0.0452,-0.34078 1.39453,-12.6746 1.45838,-13.31348 0.0977,-0.98002 -0.28328,-5.51004 -0.28328,-5.51004 -0.54293,0.72919 -1.92687,4.02308 -3.37009,5.59012 -0.84843,0.92181 -5.05142,1.48731 -5.84341,1.51377 -1.72402,0.0575 -4.86974,0.40075 -4.96182,0.23283 -0.073,-0.10054 -0.27375,-2.79188 -0.0769,-2.85785 0.17286,-0.0575 6.0138,-0.3937 7.51028,-1.1878 0.54751,-0.29034 2.18405,-3.85904 2.18405,-3.85904 0,0 2.65148,-5.58624 3.90207,-6.14821" />
    <path
       inkscape:connector-curvature="0"
       id="path3981"
       style="fill:#e2d2ca;fill-opacity:1;fill-rule:nonzero;stroke:none;stroke-width:0.03527778"
       d="m 185.08036,264.73431 h 7.08872 c 1.41711,0 2.56681,-1.14985 2.56681,-2.56688 v -11.79442 c 0,-1.41747 -1.1497,-2.56682 -2.56681,-2.56682 h -7.08872 c -1.41781,0 -2.56681,1.14935 -2.56681,2.56682 v 11.79442 c 0,1.41703 1.149,2.56688 2.56681,2.56688" />
    <path
       inkscape:connector-curvature="0"
       id="path3983"
       style="fill:#e2d2ca;fill-opacity:1;fill-rule:nonzero;stroke:none;stroke-width:0.03527778"
       d="m 184.6789,268.66489 c 1.80199,0 3.26319,-0.60498 4.34481,-1.79875 2.44334,-2.69737 2.00378,-7.4398 1.98438,-7.64018 -0.0374,-0.37394 -0.37077,-0.64699 -0.74401,-0.6096 -0.37324,0.0371 -0.64664,0.36972 -0.6096,0.74366 0.005,0.054 0.39476,4.35218 -1.64148,6.59592 -0.82338,0.9077 -1.91417,1.34895 -3.3341,1.34895 -0.37536,0 -0.6798,0.30442 -0.6798,0.67981 0,0.37578 0.30444,0.68019 0.6798,0.68019" />
    <path
       inkscape:connector-curvature="0"
       id="path3985"
       style="fill:#eef0f7;fill-opacity:1;fill-rule:nonzero;stroke:none;stroke-width:0.03527778"
       d="m 162.60947,237.15795 c 0,0.83644 -0.30127,1.60232 -0.8001,2.19604 -0.11712,0.13864 -0.24447,0.26847 -0.3817,0.38665 -0.0388,0.0339 -0.0787,0.067 -0.11959,0.0991 -0.0462,0.036 -0.0928,0.0709 -0.14041,0.10548 -0.44979,0.3182 -0.97931,0.53093 -1.55258,0.60078 -0.10124,0.0123 -0.20355,0.0201 -0.30726,0.0236 -0.037,0.001 -0.0744,0.002 -0.11184,0.002 -0.11041,0 -0.21978,-0.006 -0.32737,-0.0155 -0.12065,-0.0113 -0.23883,-0.0293 -0.3556,-0.0526 -0.51647,-0.10513 -0.99131,-0.32702 -1.39524,-0.63712 -0.12135,-0.0935 -0.23671,-0.19473 -0.34396,-0.30338 -0.0212,-0.0208 -0.042,-0.0423 -0.0621,-0.0642 -0.0765,-0.0808 -0.14922,-0.16545 -0.21695,-0.25365 -0.44662,-0.57679 -0.71226,-1.30069 -0.71226,-2.08703 0,-1.88489 1.52788,-3.41313 3.41347,-3.41313 1.8849,0 3.41348,1.52824 3.41348,3.41313" />
    <path
       inkscape:connector-curvature="0"
       id="path3987"
       style="fill:#d9c7c1;fill-opacity:1;fill-rule:nonzero;stroke:none;stroke-width:0.03527778"
       d="m 161.4192,239.04143 -0.25153,0.90382 c -0.44979,0.3182 -0.97931,0.53093 -1.55258,0.60078 -0.10124,0.0123 -0.20355,0.0201 -0.30726,0.0236 -0.037,0.001 -0.0744,0.002 -0.11184,0.002 -0.11041,0 -0.21978,-0.006 -0.32737,-0.0155 -0.12065,-0.0113 -0.23883,-0.0293 -0.3556,-0.0526 -0.51647,-0.10513 -0.99131,-0.32702 -1.39524,-0.63712 -0.048,-0.29845 -0.0998,-0.629 -0.14534,-0.93803 0.25082,-0.0938 1.04951,-0.36513 1.55363,-0.53552 0.007,-0.002 0.0138,-0.005 0.0205,-0.007 0.0113,-0.004 0.0222,-0.008 0.0328,-0.0113 0.03,-0.0102 0.0586,-0.0198 0.0854,-0.0289 0.0275,-0.01 0.054,-0.0183 0.0787,-0.0268 0.10336,-0.0346 0.17604,-0.0593 0.20179,-0.0677 0,0 3.5e-4,-3.5e-4 7.1e-4,-3.5e-4 0.007,-0.002 0.0102,-0.004 0.0102,-0.004 l 0.006,3.5e-4 0.67769,0.0508 0.11359,0.008 0.0356,0.003 c 0,0 0.005,10e-4 0.0155,0.004 0.0406,0.0106 0.15946,0.0416 0.31645,0.0896 3.5e-4,0 7e-4,3.5e-4 7e-4,3.5e-4 0.40181,0.12241 1.05234,0.3556 1.29787,0.63782" />
    <path
       inkscape:connector-curvature="0"
       id="path3989"
       style="fill:#eea987;fill-opacity:1;fill-rule:nonzero;stroke:none;stroke-width:0.03527778"
       d="m 159.37379,235.4632 c 0,0 0.81245,0.13724 0.67452,1.40971 -0.13794,1.27176 -0.85514,1.15958 -0.90347,1.15816 -0.0473,-0.002 -0.72108,0.0152 -0.75671,-1.54058 0,0 -0.0102,-1.15005 0.98566,-1.02729" />
    <path
       inkscape:connector-curvature="0"
       id="path3991"
       style="fill:#eea987;fill-opacity:1;fill-rule:nonzero;stroke:none;stroke-width:0.03527778"
       d="m 159.72975,237.66207 c 0,0 -0.0279,0.52352 0.0212,0.63782 0.0497,0.11395 -0.65228,0.47413 -1.08867,0.0635 0,0 0.0882,-0.57256 0.0607,-0.77435 -0.0272,-0.20214 1.00683,0.073 1.00683,0.073" />
    <path
       inkscape:connector-curvature="0"
       id="path3993"
       style="fill:#eea987;fill-opacity:1;fill-rule:nonzero;stroke:none;stroke-width:0.03527778"
       d="m 160.06489,236.51307 c 0,0 0.0903,-0.0942 0.12206,0.002 0.031,0.0967 -0.14429,0.52564 -0.13335,0.54504 0,0 -0.0166,0.037 -0.0377,0.0162 -0.0212,-0.0208 0.049,-0.56374 0.049,-0.56374" />
    <path
       inkscape:connector-curvature="0"
       id="path3995"
       style="fill:#eea987;fill-opacity:1;fill-rule:nonzero;stroke:none;stroke-width:0.03527778"
       d="m 158.39731,236.47885 c 0,0 -0.0861,-0.0981 -0.12136,-0.002 -0.0356,0.0952 0.0942,0.52353 0.11042,0.54963 0,0 0.0279,0.0441 0.0501,0.0243 0.0219,-0.0201 -0.0392,-0.5715 -0.0392,-0.5715" />
    <path
       inkscape:connector-curvature="0"
       id="path3997"
       style="fill:#e8734d;fill-opacity:1;fill-rule:nonzero;stroke:none;stroke-width:0.03527778"
       d="m 160.11674,236.40512 c -0.0282,0.17392 -0.0543,0.30304 -0.0543,0.30304 l -0.11818,0.15451 c 0,0 0.007,-0.34113 -0.0113,-0.39511 -0.007,-0.0201 -0.0148,-0.0564 -0.0233,-0.0952 -0.0134,-0.0645 -0.0272,-0.13687 -0.0367,-0.16122 -0.0152,-0.0388 -0.69674,-0.23742 -1.30317,0.0416 0,0 0.005,0.0526 0.005,0.11113 -3.5e-4,0.0684 -0.008,0.14464 -0.0392,0.15628 -0.0578,0.0212 -0.0339,0.39969 -0.0339,0.39969 l -0.0942,-0.10936 c 0,0 -0.0275,-0.19755 -0.0547,-0.42474 0,0 0,-7.1e-4 0,-0.002 -0.006,-0.0529 -0.0123,-0.1076 -0.0183,-0.16158 -0.0134,-0.22824 0.009,-0.64346 0.30656,-0.88759 0.20073,-0.0857 0.52141,-0.15875 1.05587,0.005 0,0 0.12276,0.008 0.15698,0.0413 0.33302,0.36618 0.26317,1.02411 0.26317,1.02411" />
    <path
       inkscape:connector-curvature="0"
       id="path3999"
       style="fill:#c78d71;fill-opacity:1;fill-rule:nonzero;stroke:none;stroke-width:0.03527778"
       d="m 158.77866,237.86104 c 0,0 0.13017,0.17956 0.43109,0.17321 0.30163,-0.007 0.43251,-0.16404 0.43251,-0.16404 0,0 -0.14288,0.29845 -0.43392,0.29527 -0.29069,-0.004 -0.42968,-0.30444 -0.42968,-0.30444" />
    <path
       inkscape:connector-curvature="0"
       id="path4001"
       style="fill:#eea987;fill-opacity:1;fill-rule:nonzero;stroke:none;stroke-width:0.03527778"
       d="m 158.57934,238.37468 c 0,0 0.21766,0.37924 0.63112,0.41451 0.26211,0.0229 0.4893,-0.30938 0.59549,-0.47237 0,0 -0.58738,-0.25117 -1.22661,0.0579" />
    <path
       inkscape:connector-curvature="0"
       id="path4003"
       style="fill:#eddad3;fill-opacity:1;fill-rule:nonzero;stroke:none;stroke-width:0.03527778"
       d="m 159.73045,238.19688 c 0,0 -0.16616,0.21731 -0.51999,0.4505 l 0.22013,0.33902 0.37536,-0.66958 -0.0755,-0.11994" />
    <path
       inkscape:connector-curvature="0"
       id="path4005"
       style="fill:#eddad3;fill-opacity:1;fill-rule:nonzero;stroke:none;stroke-width:0.03527778"
       d="m 158.67882,238.24733 c 0,0 0.21167,0.26493 0.53164,0.40005 l -0.24165,0.34925 -0.42228,-0.61101 0.13229,-0.13829" />
    <path
       inkscape:connector-curvature="0"
       id="path4007"
       style="fill:#5073ab;fill-opacity:1;fill-rule:nonzero;stroke:none;stroke-width:0.03527778"
       d="m 159.21046,238.64738 0.18873,0.28681 c 0,0 -0.1979,0.11218 -0.38241,-0.007 l 0.19368,-0.27975" />
    <path
       inkscape:connector-curvature="0"
       id="path4009"
       style="fill:#323657;fill-opacity:1;fill-rule:nonzero;stroke:none;stroke-width:0.03527778"
       d="m 161.63722,238.98851 c -0.003,0.0113 -0.20603,0.74048 -0.20955,0.75213 -0.0388,0.0339 -0.0787,0.067 -0.11959,0.0991 -0.0462,0.036 -0.0928,0.0709 -0.14041,0.10548 -0.44979,0.3182 -0.97931,0.53093 -1.55258,0.60078 0.0504,-1.18181 0.19086,-2.22921 0.19086,-2.22921 0.11077,0.0289 0.21554,0.0579 0.31468,0.0864 3.5e-4,0 7e-4,3.5e-4 7e-4,3.5e-4 0.36195,0.10371 1.19168,0.37147 1.51589,0.5849" />
    <path
       inkscape:connector-curvature="0"
       id="path4011"
       style="fill:#323657;fill-opacity:1;fill-rule:nonzero;stroke:none;stroke-width:0.03527778"
       d="m 158.51302,240.50334 c -0.51647,-0.10513 -0.99131,-0.32702 -1.39524,-0.63712 -0.12135,-0.0935 -0.23671,-0.19473 -0.34396,-0.30338 -0.0212,-0.0208 -0.042,-0.0423 -0.0621,-0.0642 -0.06,-0.25365 -0.0995,-0.4191 -0.1023,-0.43004 v -7e-4 c 0,0 0.42192,-0.27764 1.91664,-0.67628 0,0 0,3.6e-4 0,0.001 0,0.0342 7.1e-4,0.99272 -0.013,2.11067" />
    <path
       inkscape:connector-curvature="0"
       id="path4013"
       style="fill:#5073ab;fill-opacity:1;fill-rule:nonzero;stroke:none;stroke-width:0.03527778"
       d="m 159.31876,238.96594 c -0.0138,0.31079 -0.0152,0.91475 -0.0109,1.60372 -0.037,0.001 -0.0744,0.002 -0.11184,0.002 -0.11041,0 -0.21978,-0.006 -0.32737,-0.0155 0.066,-0.84949 0.17639,-1.38078 0.22683,-1.59103 0.0166,-0.0688 0.0265,-0.10337 0.0265,-0.10337 l 0.20038,0.0332 c -0.001,0.0219 -0.002,0.0455 -0.004,0.0713" />
    <path
       inkscape:connector-curvature="0"
       id="path4015"
       style="fill:#323657;fill-opacity:1;fill-rule:nonzero;stroke:none;stroke-width:0.03527778"
       d="m 161.80937,239.35399 c -0.11712,0.13864 -0.24447,0.26847 -0.3817,0.38665 -0.0388,0.0339 -0.0787,0.067 -0.11959,0.0991 0,-7.1e-4 0.32878,-0.8509 0.32914,-0.85126 0.0857,0.0487 0.13476,0.27482 0.17215,0.36548" />
    <path
       inkscape:connector-curvature="0"
       id="path4017"
       style="fill:#323657;fill-opacity:1;fill-rule:nonzero;stroke:none;stroke-width:0.03527778"
       d="m 156.77382,239.56284 c -0.0212,-0.0208 -0.042,-0.0423 -0.0621,-0.0642 -0.0765,-0.0808 -0.14922,-0.16545 -0.21695,-0.25365 0.0385,-0.0917 0.0769,-0.15381 0.11465,-0.17709 v 7e-4 l 0.16439,0.49425" />
    <path
       inkscape:connector-curvature="0"
       id="path4019"
       style="fill:#949494;fill-opacity:1;fill-rule:nonzero;stroke:none;stroke-width:0.03527778"
       d="m 144.54196,232.27304 c -0.23107,0 -0.41875,-0.18768 -0.41875,-0.4191 v -5.79156 c 0,-0.23107 0.18768,-0.41839 0.41875,-0.41839 0.23142,0 0.41875,0.18732 0.41875,0.41839 v 5.79156 c 0,0.23142 -0.18733,0.4191 -0.41875,0.4191" />
    <path
       inkscape:connector-curvature="0"
       id="path4021"
       style="fill:#949494;fill-opacity:1;fill-rule:nonzero;stroke:none;stroke-width:0.03527778"
       d="m 147.43791,229.37708 h -5.79155 c -0.23142,0 -0.41875,-0.18768 -0.41875,-0.4191 0,-0.23107 0.18733,-0.41839 0.41875,-0.41839 h 5.79155 c 0.23142,0 0.4184,0.18732 0.4184,0.41839 0,0.23142 -0.18698,0.4191 -0.4184,0.4191" />
  </g>
</svg>
